<svg xmlns="http://www.w3.org/2000/svg" xmlns:xlink="http://www.w3.org/1999/xlink" viewBox="0 0 322.47 427.45"><defs><style>.cls-1{isolation:isolate;}.cls-2{fill:#ffcfff;}.cls-3{fill:url(#Degradado_sin_nombre_14);}.cls-4{fill:url(#Degradado_sin_nombre_6);}.cls-5{fill:url(#Degradado_sin_nombre_2);}.cls-6{fill:url(#Degradado_sin_nombre_10);}.cls-7{fill:url(#Degradado_sin_nombre_12);}.cls-8{fill:url(#Degradado_sin_nombre_11);}.cls-9{fill:url(#Degradado_sin_nombre_10-2);}.cls-10{fill:url(#Degradado_sin_nombre_10-3);}.cls-11{fill:url(#Degradado_sin_nombre_9);}.cls-12{fill:url(#Degradado_sin_nombre_9-2);}.cls-13{fill:url(#Degradado_sin_nombre_9-3);}.cls-14{fill:url(#Degradado_sin_nombre_9-4);}.cls-15{fill:url(#Degradado_sin_nombre_8);}.cls-16{fill:url(#Degradado_sin_nombre_2-2);}.cls-17{fill:url(#Degradado_sin_nombre_7);}.cls-18{fill:url(#Degradado_sin_nombre_6-2);}.cls-19{fill:url(#Degradado_sin_nombre_2-3);}.cls-20{fill:url(#Degradado_sin_nombre_2-4);}.cls-21{fill:url(#Degradado_sin_nombre_5);}.cls-22{fill:url(#Degradado_sin_nombre_13);}.cls-23{fill:url(#Degradado_sin_nombre_10-4);}.cls-24{fill:url(#Degradado_sin_nombre_12-2);}.cls-25{fill:url(#Degradado_sin_nombre_11-2);}.cls-26{fill:url(#Degradado_sin_nombre_10-5);}.cls-27{fill:#ffbfff;}.cls-28{fill:url(#Degradado_sin_nombre_10-6);}.cls-29{fill:url(#Degradado_sin_nombre_9-5);}.cls-30{fill:url(#Degradado_sin_nombre_9-6);}.cls-31{fill:url(#Degradado_sin_nombre_9-7);}.cls-32{fill:url(#Degradado_sin_nombre_9-8);}.cls-33{fill:url(#Degradado_sin_nombre_8-2);}.cls-34{fill:url(#Degradado_sin_nombre_2-5);}.cls-35{fill:url(#Degradado_sin_nombre_7-2);}.cls-36{fill:url(#Degradado_sin_nombre_6-3);}.cls-37{fill:url(#Degradado_sin_nombre_2-6);}.cls-38{fill:url(#Degradado_sin_nombre_2-7);}.cls-39{fill:url(#Degradado_sin_nombre_5-2);}.cls-40{fill:url(#Degradado_sin_nombre_5-3);}.cls-41{fill:url(#Degradado_sin_nombre_5-4);}.cls-42{fill:url(#Degradado_sin_nombre_13-2);}.cls-43{fill:url(#Degradado_sin_nombre_10-7);}.cls-44{fill:url(#Degradado_sin_nombre_12-3);}.cls-45{fill:url(#Degradado_sin_nombre_11-3);}.cls-46{fill:url(#Degradado_sin_nombre_10-8);}.cls-47{fill:url(#Degradado_sin_nombre_10-9);}.cls-48{fill:url(#Degradado_sin_nombre_9-9);}.cls-49{fill:url(#Degradado_sin_nombre_9-10);}.cls-50{fill:url(#Degradado_sin_nombre_9-11);}.cls-51{fill:url(#Degradado_sin_nombre_9-12);}.cls-52{fill:#fca5ff;}.cls-53{fill:url(#Degradado_sin_nombre_9-13);}.cls-54{fill:url(#Degradado_sin_nombre_8-3);}.cls-55{fill:url(#Degradado_sin_nombre_2-8);}.cls-56{fill:url(#Degradado_sin_nombre_7-3);}.cls-57{fill:url(#Degradado_sin_nombre_6-4);}.cls-58{fill:url(#Degradado_sin_nombre_2-9);}.cls-59{fill:url(#Degradado_sin_nombre_2-10);}.cls-60{fill:url(#Degradado_sin_nombre_5-5);}.cls-61{fill:url(#Degradado_sin_nombre_5-6);}.cls-62{fill:url(#Degradado_sin_nombre_5-7);}.cls-63{fill:#ff4eff;}.cls-64{fill:#eab18b;}.cls-65{fill:#273035;}.cls-66{fill:#dda07f;}.cls-67{fill:#cc8a6d;}.cls-68{fill:url(#Degradado_sin_nombre_92);}.cls-69{fill:#353d44;}.cls-70{fill:url(#Degradado_sin_nombre_91);}.cls-71{fill:url(#Degradado_sin_nombre_91-2);}.cls-72{fill:#137391;opacity:0.35;}.cls-72,.cls-86{mix-blend-mode:multiply;}.cls-73{fill:url(#Degradado_sin_nombre_90);}.cls-74{fill:url(#Degradado_sin_nombre_89);}.cls-75{fill:url(#Degradado_sin_nombre_79);}.cls-76{fill:url(#Degradado_sin_nombre_84);}.cls-77{fill:url(#Degradado_sin_nombre_88);}.cls-78{fill:url(#Degradado_sin_nombre_87);}.cls-79{fill:url(#Degradado_sin_nombre_86);}.cls-80{fill:url(#Degradado_sin_nombre_81);}.cls-81{fill:url(#Degradado_sin_nombre_85);}.cls-82{fill:url(#Degradado_sin_nombre_85-2);}.cls-83{fill:#e0a380;}.cls-84{fill:#6d5e57;}.cls-85{fill:#51443f;}.cls-86{fill:#d39779;opacity:0.4;}.cls-87{fill:url(#Degradado_sin_nombre_84-2);}.cls-88{fill:url(#Degradado_sin_nombre_84-3);}.cls-89{fill:url(#Degradado_sin_nombre_80);}.cls-90{fill:url(#Degradado_sin_nombre_81-2);}.cls-91{fill:url(#Degradado_sin_nombre_83);}.cls-92{fill:url(#Degradado_sin_nombre_4);}.cls-93{fill:url(#Degradado_sin_nombre_3);}.cls-94{fill:url(#Degradado_sin_nombre_2-11);}.cls-95{fill:url(#Degradado_sin_nombre_2-12);}.cls-96{fill:url(#Degradado_sin_nombre_2-13);}.cls-97{fill:url(#Degradado_sin_nombre_3-2);}.cls-98{fill:url(#Degradado_sin_nombre_2-14);}.cls-99{fill:url(#Degradado_sin_nombre_79-2);}.cls-100{fill:url(#Degradado_sin_nombre_81-3);}.cls-101{fill:url(#Degradado_sin_nombre_79-3);}.cls-102{fill:url(#Degradado_sin_nombre_80-2);}.cls-103{fill:url(#Degradado_sin_nombre_79-4);}.cls-104{fill:url(#Degradado_sin_nombre_80-3);}.cls-105{fill:url(#Degradado_sin_nombre_80-4);}.cls-106{fill:url(#Degradado_sin_nombre_79-5);}.cls-107{fill:url(#Degradado_sin_nombre_81-4);}.cls-108{fill:url(#Degradado_sin_nombre_79-6);}.cls-109{fill:url(#Degradado_sin_nombre_80-5);}.cls-110{fill:url(#Degradado_sin_nombre_79-7);}.cls-111{fill:url(#Degradado_sin_nombre_80-6);}.cls-112{fill:url(#Degradado_sin_nombre_80-7);}</style><linearGradient id="Degradado_sin_nombre_14" y1="314.27" x2="322.47" y2="314.27" gradientUnits="userSpaceOnUse"><stop offset="0" stop-color="#edddff"/><stop offset="1" stop-color="#fffcff"/></linearGradient><linearGradient id="Degradado_sin_nombre_6" x1="175.74" y1="366.61" x2="322.47" y2="366.61" gradientUnits="userSpaceOnUse"><stop offset="0" stop-color="#7896ff"/><stop offset="0.29" stop-color="#7ea7ff"/><stop offset="1" stop-color="#8bceff"/></linearGradient><linearGradient id="Degradado_sin_nombre_2" y1="358.16" x2="175.74" y2="358.16" gradientUnits="userSpaceOnUse"><stop offset="0" stop-color="#a4beff"/><stop offset="0.2" stop-color="#a6c8ff"/><stop offset="1" stop-color="#aeefff"/></linearGradient><linearGradient id="Degradado_sin_nombre_10" x1="181.39" y1="373.33" x2="221.7" y2="303.51" gradientUnits="userSpaceOnUse"><stop offset="0" stop-color="#e462ff"/><stop offset="0.47" stop-color="#cd89ff"/><stop offset="1" stop-color="#b0baff"/></linearGradient><linearGradient id="Degradado_sin_nombre_12" x1="260.5" y1="360.22" x2="341.15" y2="360.22" gradientUnits="userSpaceOnUse"><stop offset="0" stop-color="#ff9eff"/><stop offset="0.56" stop-color="#ffc5ff"/><stop offset="1" stop-color="#ffe6ff"/></linearGradient><linearGradient id="Degradado_sin_nombre_11" x1="259.89" y1="361" x2="344.59" y2="361" gradientUnits="userSpaceOnUse"><stop offset="0" stop-color="#fe8cff"/><stop offset="0.61" stop-color="#e4b3ff"/><stop offset="1" stop-color="#d1ceff"/></linearGradient><linearGradient id="Degradado_sin_nombre_10-2" x1="141.08" y1="333.01" x2="181.39" y2="263.19" xlink:href="#Degradado_sin_nombre_10"/><linearGradient id="Degradado_sin_nombre_10-3" x1="203.5" y1="358.67" x2="211.57" y2="344.7" xlink:href="#Degradado_sin_nombre_10"/><linearGradient id="Degradado_sin_nombre_9" x1="230.59" y1="377.23" x2="254.2" y2="377.23" gradientUnits="userSpaceOnUse"><stop offset="0" stop-color="#ffadff"/><stop offset="0.82" stop-color="#fdd4ff"/><stop offset="1" stop-color="#fdddff"/></linearGradient><linearGradient id="Degradado_sin_nombre_9-2" x1="230.59" y1="370.18" x2="254.2" y2="370.18" xlink:href="#Degradado_sin_nombre_9"/><linearGradient id="Degradado_sin_nombre_9-3" x1="156.94" y1="346.53" x2="221.26" y2="346.53" xlink:href="#Degradado_sin_nombre_9"/><linearGradient id="Degradado_sin_nombre_9-4" x1="156.94" y1="339.49" x2="221.26" y2="339.49" xlink:href="#Degradado_sin_nombre_9"/><linearGradient id="Degradado_sin_nombre_8" x1="279.6" y1="371.2" x2="286.65" y2="383.42" gradientUnits="userSpaceOnUse"><stop offset="0" stop-color="#ff4eff"/><stop offset="0.29" stop-color="#ff6dff"/><stop offset="0.76" stop-color="#ff9bff"/><stop offset="1" stop-color="#ffadff"/></linearGradient><linearGradient id="Degradado_sin_nombre_2-2" x1="156.08" y1="314.16" x2="245.22" y2="314.16" xlink:href="#Degradado_sin_nombre_2"/><linearGradient id="Degradado_sin_nombre_7" x1="258.32" y1="335.96" x2="328.38" y2="335.96" gradientUnits="userSpaceOnUse"><stop offset="0" stop-color="#ebdcff"/><stop offset="1" stop-color="#f3fcff"/></linearGradient><linearGradient id="Degradado_sin_nombre_6-2" x1="257.71" y1="336.74" x2="331.83" y2="336.74" xlink:href="#Degradado_sin_nombre_6"/><linearGradient id="Degradado_sin_nombre_2-3" x1="142.82" y1="308.01" x2="177.86" y2="247.32" xlink:href="#Degradado_sin_nombre_2"/><linearGradient id="Degradado_sin_nombre_2-4" x1="207.89" y1="335.19" x2="215.97" y2="321.2" xlink:href="#Degradado_sin_nombre_2"/><linearGradient id="Degradado_sin_nombre_5" x1="180.01" y1="328.2" x2="241.61" y2="328.2" gradientUnits="userSpaceOnUse"><stop offset="0" stop-color="#fae5ff"/><stop offset="1" stop-color="#fffcff"/></linearGradient><linearGradient id="Degradado_sin_nombre_13" x1="276.05" y1="345.78" x2="288.12" y2="366.68" gradientUnits="userSpaceOnUse"><stop offset="0" stop-color="#ff69ff"/><stop offset="0.05" stop-color="#ff6dff"/><stop offset="0.68" stop-color="#ff9bff"/><stop offset="1" stop-color="#ffadff"/></linearGradient><linearGradient id="Degradado_sin_nombre_10-4" x1="151.64" y1="288.5" x2="231.3" y2="288.5" xlink:href="#Degradado_sin_nombre_10"/><linearGradient id="Degradado_sin_nombre_12-2" x1="256.69" y1="310.44" x2="313.85" y2="310.44" xlink:href="#Degradado_sin_nombre_12"/><linearGradient id="Degradado_sin_nombre_11-2" x1="255.97" y1="311.36" x2="317.91" y2="311.36" xlink:href="#Degradado_sin_nombre_11"/><linearGradient id="Degradado_sin_nombre_10-5" x1="148.67" y1="281.13" x2="177.23" y2="231.67" xlink:href="#Degradado_sin_nombre_10"/><linearGradient id="Degradado_sin_nombre_10-6" x1="216.24" y1="313.11" x2="225.75" y2="296.63" xlink:href="#Degradado_sin_nombre_10"/><linearGradient id="Degradado_sin_nombre_9-5" x1="194.66" y1="300.66" x2="204.18" y2="284.18" xlink:href="#Degradado_sin_nombre_9"/><linearGradient id="Degradado_sin_nombre_9-6" x1="238.63" y1="326.04" x2="248.14" y2="309.56" xlink:href="#Degradado_sin_nombre_9"/><linearGradient id="Degradado_sin_nombre_9-7" x1="183.87" y1="294.43" x2="193.39" y2="277.94" xlink:href="#Degradado_sin_nombre_9"/><linearGradient id="Degradado_sin_nombre_9-8" x1="248.77" y1="331.9" x2="258.28" y2="315.41" xlink:href="#Degradado_sin_nombre_9"/><linearGradient id="Degradado_sin_nombre_8-2" x1="277.37" y1="313.97" x2="288.7" y2="333.59" xlink:href="#Degradado_sin_nombre_8"/><linearGradient id="Degradado_sin_nombre_2-5" x1="154.1" y1="262.53" x2="226.39" y2="262.53" xlink:href="#Degradado_sin_nombre_2"/><linearGradient id="Degradado_sin_nombre_7-2" x1="254.05" y1="284.21" x2="310.06" y2="284.21" xlink:href="#Degradado_sin_nombre_7"/><linearGradient id="Degradado_sin_nombre_6-3" x1="253.53" y1="284.87" x2="313" y2="284.87" xlink:href="#Degradado_sin_nombre_6"/><linearGradient id="Degradado_sin_nombre_2-6" x1="143.86" y1="256.8" x2="171.87" y2="208.29" xlink:href="#Degradado_sin_nombre_2"/><linearGradient id="Degradado_sin_nombre_2-7" x1="213.03" y1="283.63" x2="219.93" y2="271.68" xlink:href="#Degradado_sin_nombre_2"/><linearGradient id="Degradado_sin_nombre_5-2" x1="181.46" y1="265.39" x2="188.34" y2="253.47" xlink:href="#Degradado_sin_nombre_5"/><linearGradient id="Degradado_sin_nombre_5-3" x1="242.48" y1="300.6" x2="249.36" y2="288.67" xlink:href="#Degradado_sin_nombre_5"/><linearGradient id="Degradado_sin_nombre_5-4" x1="212.05" y1="281.02" x2="216.87" y2="272.68" xlink:href="#Degradado_sin_nombre_5"/><linearGradient id="Degradado_sin_nombre_13-2" x1="266.58" y1="291.16" x2="277.06" y2="309.32" xlink:href="#Degradado_sin_nombre_13"/><linearGradient id="Degradado_sin_nombre_10-7" x1="166.26" y1="239.75" x2="244.89" y2="239.75" xlink:href="#Degradado_sin_nombre_10"/><linearGradient id="Degradado_sin_nombre_12-3" x1="263.7" y1="261.31" x2="329.12" y2="261.31" xlink:href="#Degradado_sin_nombre_12"/><linearGradient id="Degradado_sin_nombre_11-3" x1="263.28" y1="261.85" x2="331.5" y2="261.85" xlink:href="#Degradado_sin_nombre_11"/><linearGradient id="Degradado_sin_nombre_10-8" x1="149.84" y1="236.22" x2="182.57" y2="179.52" xlink:href="#Degradado_sin_nombre_10"/><linearGradient id="Degradado_sin_nombre_10-9" x1="217.31" y1="259.07" x2="222.92" y2="249.36" xlink:href="#Degradado_sin_nombre_10"/><linearGradient id="Degradado_sin_nombre_9-9" x1="176.05" y1="230.4" x2="179.61" y2="230.4" xlink:href="#Degradado_sin_nombre_9"/><linearGradient id="Degradado_sin_nombre_9-10" x1="179.26" y1="232.26" x2="182.83" y2="232.26" xlink:href="#Degradado_sin_nombre_9"/><linearGradient id="Degradado_sin_nombre_9-11" x1="182.48" y1="234.11" x2="186.05" y2="234.11" xlink:href="#Degradado_sin_nombre_9"/><linearGradient id="Degradado_sin_nombre_9-12" x1="185.77" y1="235.89" x2="189.34" y2="235.89" xlink:href="#Degradado_sin_nombre_9"/><linearGradient id="Degradado_sin_nombre_9-13" x1="196.08" y1="253.6" x2="240.16" y2="253.6" xlink:href="#Degradado_sin_nombre_9"/><linearGradient id="Degradado_sin_nombre_8-3" x1="274.37" y1="272.98" x2="280.88" y2="284.25" xlink:href="#Degradado_sin_nombre_8"/><linearGradient id="Degradado_sin_nombre_2-8" x1="163.03" y1="219.82" x2="231.84" y2="219.82" xlink:href="#Degradado_sin_nombre_2"/><linearGradient id="Degradado_sin_nombre_7-3" x1="261.71" y1="241.44" x2="315.79" y2="241.44" xlink:href="#Degradado_sin_nombre_7"/><linearGradient id="Degradado_sin_nombre_6-4" x1="261.24" y1="242.04" x2="318.45" y2="242.04" xlink:href="#Degradado_sin_nombre_6"/><linearGradient id="Degradado_sin_nombre_2-9" x1="152.8" y1="215.07" x2="179.84" y2="168.22" xlink:href="#Degradado_sin_nombre_2"/><linearGradient id="Degradado_sin_nombre_2-10" x1="222.78" y1="240.84" x2="229.02" y2="230.04" xlink:href="#Degradado_sin_nombre_2"/><linearGradient id="Degradado_sin_nombre_5-5" x1="201.26" y1="235.44" x2="248.81" y2="235.44" xlink:href="#Degradado_sin_nombre_5"/><linearGradient id="Degradado_sin_nombre_5-6" x1="189.79" y1="217.76" x2="199.29" y2="217.76" xlink:href="#Degradado_sin_nombre_5"/><linearGradient id="Degradado_sin_nombre_5-7" x1="251.16" y1="251.36" x2="254.22" y2="251.36" xlink:href="#Degradado_sin_nombre_5"/><linearGradient id="Degradado_sin_nombre_92" x1="257.17" y1="73.48" x2="275.79" y2="80.25" gradientUnits="userSpaceOnUse"><stop offset="0" stop-color="#246b93"/><stop offset="0.29" stop-color="#2e5c82"/><stop offset="1" stop-color="#433b5b"/></linearGradient><linearGradient id="Degradado_sin_nombre_91" x1="237.27" y1="176.98" x2="252.05" y2="176.98" gradientUnits="userSpaceOnUse"><stop offset="0" stop-color="#9065fc"/><stop offset="0.47" stop-color="#798cfd"/><stop offset="1" stop-color="#5cbdff"/></linearGradient><linearGradient id="Degradado_sin_nombre_91-2" x1="251.84" y1="164.23" x2="271.4" y2="164.23" xlink:href="#Degradado_sin_nombre_91"/><linearGradient id="Degradado_sin_nombre_90" x1="259.2" y1="104.99" x2="259.2" y2="97.23" gradientUnits="userSpaceOnUse"><stop offset="0" stop-color="#5af2ca"/><stop offset="0.64" stop-color="#53cef1"/><stop offset="0.86" stop-color="#50c1ff"/></linearGradient><linearGradient id="Degradado_sin_nombre_89" x1="252.04" y1="90.38" x2="257.11" y2="100.31" gradientUnits="userSpaceOnUse"><stop offset="0.36" stop-color="#50c1ff"/><stop offset="0.52" stop-color="#53cef1"/><stop offset="1" stop-color="#5af2ca"/></linearGradient><linearGradient id="Degradado_sin_nombre_79" x1="259.35" y1="95.2" x2="262.45" y2="95.2" gradientUnits="userSpaceOnUse"><stop offset="0" stop-color="#50c1ff"/><stop offset="0.25" stop-color="#53cef1"/><stop offset="1" stop-color="#5af2ca"/></linearGradient><linearGradient id="Degradado_sin_nombre_84" x1="219.18" y1="138.13" x2="274.16" y2="138.13" gradientUnits="userSpaceOnUse"><stop offset="0" stop-color="#433b5b"/><stop offset="0.71" stop-color="#2e5c82"/><stop offset="1" stop-color="#246b93"/></linearGradient><linearGradient id="Degradado_sin_nombre_88" x1="221.21" y1="82.72" x2="226.69" y2="82.72" gradientUnits="userSpaceOnUse"><stop offset="0" stop-color="#29434f"/><stop offset="1" stop-color="#23212b"/></linearGradient><linearGradient id="Degradado_sin_nombre_87" x1="258.63" y1="149.48" x2="266.85" y2="149.48" gradientUnits="userSpaceOnUse"><stop offset="0" stop-color="#23212b"/><stop offset="1" stop-color="#29434f"/></linearGradient><linearGradient id="Degradado_sin_nombre_86" x1="260.47" y1="151.3" x2="265.16" y2="151.3" gradientUnits="userSpaceOnUse"><stop offset="0" stop-color="#4e486b"/><stop offset="0.5" stop-color="#3d6a92"/><stop offset="1" stop-color="#2b90bc"/></linearGradient><linearGradient id="Degradado_sin_nombre_81" x1="196.58" y1="66.05" x2="221.31" y2="66.05" gradientTransform="translate(130.68 -138.63) rotate(51.53)" gradientUnits="userSpaceOnUse"><stop offset="0" stop-color="#f45184"/><stop offset="0.29" stop-color="#f47084"/><stop offset="0.76" stop-color="#f49e84"/><stop offset="1" stop-color="#f4b084"/></linearGradient><linearGradient id="Degradado_sin_nombre_85" x1="249.95" y1="127.49" x2="249.95" y2="90.56" gradientUnits="userSpaceOnUse"><stop offset="0" stop-color="#f4b084"/><stop offset="0.24" stop-color="#f49e84"/><stop offset="0.71" stop-color="#f47084"/><stop offset="1" stop-color="#f45184"/></linearGradient><linearGradient id="Degradado_sin_nombre_85-2" x1="263.63" y1="119.75" x2="263.63" y2="85.9" xlink:href="#Degradado_sin_nombre_85"/><linearGradient id="Degradado_sin_nombre_84-2" x1="298.5" y1="45.6" x2="290.38" y2="30.95" xlink:href="#Degradado_sin_nombre_84"/><linearGradient id="Degradado_sin_nombre_84-3" x1="203.93" y1="12.49" x2="224.32" y2="12.49" xlink:href="#Degradado_sin_nombre_84"/><linearGradient id="Degradado_sin_nombre_80" x1="300.02" y1="33.15" x2="302.29" y2="33.15" gradientUnits="userSpaceOnUse"><stop offset="0" stop-color="#5cbdff"/><stop offset="0.53" stop-color="#798cfd"/><stop offset="1" stop-color="#9065fc"/></linearGradient><linearGradient id="Degradado_sin_nombre_81-2" x1="300.85" y1="41.03" x2="304.93" y2="41.03" gradientTransform="matrix(1, 0, 0, 1, 0, 0)" xlink:href="#Degradado_sin_nombre_81"/><linearGradient id="Degradado_sin_nombre_83" x1="304.3" y1="49.72" x2="305.58" y2="48.72" xlink:href="#Degradado_sin_nombre_91"/><linearGradient id="Degradado_sin_nombre_4" x1="301.17" y1="156.18" x2="322.29" y2="156.18" gradientUnits="userSpaceOnUse"><stop offset="0" stop-color="#aeefff"/><stop offset="0.8" stop-color="#a6c8ff"/><stop offset="1" stop-color="#a4beff"/></linearGradient><linearGradient id="Degradado_sin_nombre_3" x1="308.14" y1="164.96" x2="332.83" y2="164.96" gradientUnits="userSpaceOnUse"><stop offset="0" stop-color="#b0baff"/><stop offset="0.53" stop-color="#cd89ff"/><stop offset="1" stop-color="#e462ff"/></linearGradient><linearGradient id="Degradado_sin_nombre_2-11" x1="288.07" y1="102.77" x2="306.58" y2="102.77" xlink:href="#Degradado_sin_nombre_2"/><linearGradient id="Degradado_sin_nombre_2-12" x1="186.13" y1="180.77" x2="199.19" y2="158.15" xlink:href="#Degradado_sin_nombre_2"/><linearGradient id="Degradado_sin_nombre_2-13" x1="199.66" y1="125.02" x2="199.66" y2="101.11" xlink:href="#Degradado_sin_nombre_2"/><linearGradient id="Degradado_sin_nombre_3-2" x1="197.31" y1="112.08" x2="203.61" y2="123" xlink:href="#Degradado_sin_nombre_3"/><linearGradient id="Degradado_sin_nombre_2-14" x1="229.96" y1="150.27" x2="229.96" y2="126.3" xlink:href="#Degradado_sin_nombre_2"/><linearGradient id="Degradado_sin_nombre_79-2" x1="201.12" y1="134.44" x2="204.21" y2="134.44" xlink:href="#Degradado_sin_nombre_79"/><linearGradient id="Degradado_sin_nombre_81-3" x1="204.02" y1="149.7" x2="207.19" y2="149.09" gradientTransform="translate(393.05 -22.23) rotate(101.52)" xlink:href="#Degradado_sin_nombre_81"/><linearGradient id="Degradado_sin_nombre_79-3" x1="121.02" y1="148.54" x2="123.97" y2="148.54" xlink:href="#Degradado_sin_nombre_79"/><linearGradient id="Degradado_sin_nombre_80-2" x1="200.95" y1="136.24" x2="204.9" y2="136.24" gradientTransform="translate(376.94 -35.38) rotate(101.52)" xlink:href="#Degradado_sin_nombre_80"/><linearGradient id="Degradado_sin_nombre_79-4" x1="201.67" y1="137.5" x2="204.69" y2="137.5" gradientTransform="translate(378.49 -34.12) rotate(101.52)" xlink:href="#Degradado_sin_nombre_79"/><linearGradient id="Degradado_sin_nombre_80-3" x1="206.56" y1="164.1" x2="210.59" y2="163.82" xlink:href="#Degradado_sin_nombre_80"/><linearGradient id="Degradado_sin_nombre_80-4" x1="200.36" y1="140.89" x2="202.72" y2="140.89" xlink:href="#Degradado_sin_nombre_80"/><linearGradient id="Degradado_sin_nombre_79-5" x1="218.7" y1="132.29" x2="222.06" y2="132.29" gradientTransform="matrix(-0.63, 0.78, -0.78, -0.63, 582.89, 54.98)" xlink:href="#Degradado_sin_nombre_79"/><linearGradient id="Degradado_sin_nombre_81-4" x1="221.85" y1="148.88" x2="225.3" y2="148.21" gradientTransform="translate(516.78 -54.74) rotate(101.52)" xlink:href="#Degradado_sin_nombre_81"/><linearGradient id="Degradado_sin_nombre_79-6" x1="225.78" y1="170.43" x2="228.99" y2="170.43" gradientTransform="matrix(-0.63, 0.78, -0.78, -0.63, 496.28, 33.98)" xlink:href="#Degradado_sin_nombre_79"/><linearGradient id="Degradado_sin_nombre_80-5" x1="218.51" y1="134.25" x2="222.81" y2="134.25" gradientTransform="translate(515.12 -47.97) rotate(101.52)" xlink:href="#Degradado_sin_nombre_80"/><linearGradient id="Degradado_sin_nombre_79-7" x1="219.3" y1="135.61" x2="222.58" y2="135.61" gradientTransform="translate(515.27 -48.63) rotate(101.52)" xlink:href="#Degradado_sin_nombre_79"/><linearGradient id="Degradado_sin_nombre_80-6" x1="224.61" y1="164.52" x2="228.99" y2="164.21" gradientTransform="matrix(-0.63, 0.78, -0.78, -0.63, 582.89, 54.98)" xlink:href="#Degradado_sin_nombre_80"/><linearGradient id="Degradado_sin_nombre_80-7" x1="217.87" y1="139.3" x2="220.44" y2="139.3" gradientTransform="matrix(-0.63, 0.78, -0.78, -0.63, 582.89, 54.98)" xlink:href="#Degradado_sin_nombre_80"/></defs><title>414377-PETBKW-27</title><g class="cls-1"><g id="OBJECTS"><polygon class="cls-2" points="175.74 427.45 322.47 342.74 146.73 241.13 0 325.84 175.74 427.45"/><polygon class="cls-3" points="175.74 407.43 322.47 322.72 146.73 221.11 0 305.82 175.74 407.43"/><polygon class="cls-4" points="175.74 407.43 175.74 410.5 322.47 325.78 322.47 322.72 175.74 407.43"/><polygon class="cls-5" points="175.74 410.5 0 308.89 0 305.82 175.74 407.43 175.74 410.5"/><polygon class="cls-6" points="177.36 371 257.98 324.45 225.73 305.83 145.11 352.38 177.36 371"/><path class="cls-7" d="M263.72,390.42l77.43-44.67a34.47,34.47,0,0,1,0-16.18L263,374.45s-5.76,12.92.28,16.42Z" transform="translate(-86.61 -21)"/><path class="cls-2" d="M264,375" transform="translate(-86.61 -21)"/><path class="cls-8" d="M344.59,345.45,265,391.38c-5.38-4,0-15.59,0-15.59l79.62-46v-1.42l-82,45.75s-6.89,14.64,1.39,19.42L344.59,347Z" transform="translate(-86.61 -21)"/><polygon class="cls-9" points="64.49 288.79 177.36 353.96 257.98 307.41 145.11 242.25 64.49 288.79"/><path class="cls-10" d="M264,393.58c-6.54-5,0-18.62,0-18.62L151.1,309.79s-6.54,13.61,0,18.62Z" transform="translate(-86.61 -21)"/><path class="cls-11" d="M254.2,385.86a7.77,7.77,0,0,1,0-3.84l-23.26-13.43s-.79,2.51,0,3.84Z" transform="translate(-86.61 -21)"/><path class="cls-12" d="M254.2,378.81a7.72,7.72,0,0,1,0-3.83l-23.26-13.43s-.79,2.51,0,3.83Z" transform="translate(-86.61 -21)"/><path class="cls-13" d="M221.26,366.91a7.86,7.86,0,0,1,0-3.83l-64-36.93s-.79,2.51,0,3.84Z" transform="translate(-86.61 -21)"/><path class="cls-14" d="M221.26,359.87a7.9,7.9,0,0,1,0-3.84l-64-36.93s-.79,2.51,0,3.84Z" transform="translate(-86.61 -21)"/><path class="cls-15" d="M291.45,380.54c-4.15-1.29-3-9.88-6.95-12.18l-9.43,5.55c4,2.3,2.8,10.89,6.95,12.18,0,0,.47-5.57,2-6.37C284,379.72,289.33,381,291.45,380.54Z" transform="translate(-86.61 -21)"/><polygon class="cls-16" points="175.17 343.69 245.22 303.25 212.97 284.63 156.08 332.71 175.17 343.69"/><path class="cls-17" d="M261.53,363.12l66.85-38.57a59.81,59.81,0,0,1,0-16.19L260.8,347.14s-5.77,12.93.28,16.42Z" transform="translate(-86.61 -21)"/><path class="cls-2" d="M261.79,347.65" transform="translate(-86.61 -21)"/><path class="cls-18" d="M331.83,324.25l-69,39.83c-5.38-4,0-15.59,0-15.59l69-39.87v-1.41L260.4,346.85s-6.9,14.64,1.39,19.42l70-40.44Z" transform="translate(-86.61 -21)"/><polygon class="cls-19" points="75.46 269.12 175.17 326.65 245.22 286.21 145.5 228.67 75.46 269.12"/><path class="cls-20" d="M261.79,366.27c-6.55-5,0-18.62,0-18.62l-99.72-57.53s-6.54,13.6,0,18.62Z" transform="translate(-86.61 -21)"/><path class="cls-21" d="M241.61,351.3c-2.28-3.65,0-11.3,0-11.3L181.1,305.09s-2.45,7.16,0,11.3Z" transform="translate(-86.61 -21)"/><path class="cls-22" d="M294,363.09c-7.1-2.21-5.08-16.89-11.89-20.82l-11.5,6.82c6.81,3.93,4.79,18.62,11.89,20.82,0,0-1.85-8.16.79-9.52C283.31,360.39,290.39,363.82,294,363.09Z" transform="translate(-86.61 -21)"/><polygon class="cls-23" points="174.18 315.97 231.3 283 193.24 261.02 151.64 303 174.18 315.97"/><path class="cls-24" d="M260.49,335.11l53.36-30.76a70.3,70.3,0,0,1,0-19.1l-54.23,31s-6.8,15.25.33,19.37Z" transform="translate(-86.61 -21)"/><path class="cls-2" d="M260.79,316.86" transform="translate(-86.61 -21)"/><path class="cls-25" d="M317.91,304,262,336.24c-6.35-4.68,0-18.4,0-18.4l55.94-32.28v-1.67l-58.76,32s-8.14,17.28,1.64,22.92l57.12-33Z" transform="translate(-86.61 -21)"/><polygon class="cls-26" points="94.6 249.91 174.18 295.86 231.3 262.89 151.72 216.94 94.6 249.91"/><polygon class="cls-27" points="115.5 251.9 170.74 283.79 210.4 260.9 155.16 229.01 115.5 251.9"/><path class="cls-28" d="M260.79,338.83c-7.72-5.92,0-22,0-22l-79.58-45.95s-7.72,16.06,0,22Z" transform="translate(-86.61 -21)"/><path class="cls-29" d="M205,306.61c-7.72-5.92,0-22,0-22l-11.1-6.42s-7.72,16.06,0,22Z" transform="translate(-86.61 -21)"/><path class="cls-30" d="M248.94,332c-7.72-5.92,0-22,0-22l-11.11-6.42s-7.72,16.06,0,22Z" transform="translate(-86.61 -21)"/><path class="cls-31" d="M190.47,298.23c-7.72-5.92,0-22,0-22l-3.68-2.11s-7.72,16.05,0,22Z" transform="translate(-86.61 -21)"/><path class="cls-32" d="M255.36,335.7c-7.72-5.93,0-22,0-22l-3.67-2.11s-7.72,16.05,0,22Z" transform="translate(-86.61 -21)"/><path class="cls-33" d="M294.24,330.22c-6.67-2.07-4.77-15.85-11.16-19.54l-10.79,6.4c6.39,3.69,4.49,17.48,11.15,19.55,0,0-1.73-7.66.75-8.94C284.19,327.69,290.84,330.91,294.24,330.22Z" transform="translate(-86.61 -21)"/><polygon class="cls-34" points="170.4 286.63 226.39 254.31 198.85 238.42 154.1 277.25 170.4 286.63"/><path class="cls-35" d="M256.79,306.29l53.27-30.72a50.91,50.91,0,0,1,0-13.82l-53.89,30.9s-4.93,11,.24,14Z" transform="translate(-86.61 -21)"/><path class="cls-2" d="M257,293.09" transform="translate(-86.61 -21)"/><path class="cls-36" d="M313,275.31l-55.13,31.8c-4.6-3.39,0-13.31,0-13.31L313,262v-1.21L255.83,292.4S249.94,304.9,257,309l56-32.32Z" transform="translate(-86.61 -21)"/><polygon class="cls-37" points="89.34 225.32 170.4 272.09 226.39 239.76 145.33 193 89.34 225.32"/><path class="cls-38" d="M257,309c-5.58-4.28,0-15.89,0-15.89L176,246.32s-5.58,11.61,0,15.9Z" transform="translate(-86.61 -21)"/><path class="cls-39" d="M187.2,268.7c-5.59-4.28,0-15.89,0-15.89l-4.59-2.65s-5.59,11.61,0,15.89Z" transform="translate(-86.61 -21)"/><path class="cls-40" d="M248.22,303.91c-5.59-4.29,0-15.9,0-15.9l-4.6-2.65s-5.58,11.61,0,15.9Z" transform="translate(-86.61 -21)"/><path class="cls-41" d="M224.48,287.68c-1.78-2.37.34-10.34.34-10.34l-20.15-11.7s-2.58,8.55-.36,10.91Z" transform="translate(-86.61 -21)"/><path class="cls-42" d="M262.71,293.4c7.87,1.05-3.12,17.49,8.85,19.09,0,0-2-7.85,1.43-11.51,0,0,3.19,6.24,7.41,5.35-3.12-5.71,1.13-15.79-7.78-18.65Z" transform="translate(-86.61 -21)"/><polygon class="cls-43" points="179.49 265.1 244.89 227.31 222.55 214.41 166.26 257.49 179.49 265.1"/><path class="cls-44" d="M265.93,285l63.19-36.49a41.28,41.28,0,0,1,0-11.22l-63.7,36.64s-4,9,.19,11.38Z" transform="translate(-86.61 -21)"/><path class="cls-2" d="M266.1,274.29" transform="translate(-86.61 -21)"/><path class="cls-45" d="M331.5,248.31l-64.7,37.36c-3.73-2.75,0-10.8,0-10.8l64.7-37.39v-1l-66.36,37.24s-4.78,10.14,1,13.45l65.4-37.79Z" transform="translate(-86.61 -21)"/><polygon class="cls-46" points="87.52 200.24 179.49 253.29 244.89 215.5 152.92 162.44 87.52 200.24"/><path class="cls-47" d="M266.1,287.19c-4.53-3.47,0-12.9,0-12.9l-92-53.05s-4.53,9.42,0,12.9Z" transform="translate(-86.61 -21)"/><path class="cls-48" d="M179.61,237.3c-4.53-3.48,0-12.9,0-12.9l-1.55-.9s-4.53,9.42,0,12.9Z" transform="translate(-86.61 -21)"/><path class="cls-49" d="M182.83,239.16c-4.53-3.48,0-12.9,0-12.9l-1.56-.9s-4.53,9.42,0,12.9Z" transform="translate(-86.61 -21)"/><path class="cls-50" d="M186.05,241c-4.53-3.48,0-12.9,0-12.9l-1.55-.9s-4.54,9.42,0,12.9Z" transform="translate(-86.61 -21)"/><path class="cls-51" d="M189.34,242.79c-4.53-3.48,0-12.9,0-12.9l-1.56-.9s-4.53,9.43,0,12.9Z" transform="translate(-86.61 -21)"/><path class="cls-52" d="M259,283.08c-4.54-3.48,0-12.9,0-12.9L255.24,268s-4.53,9.42,0,12.9Z" transform="translate(-86.61 -21)"/><path class="cls-53" d="M239.7,270.08a.15.15,0,0,1-.09,0L196.9,246.31l0,0c-1.85-2,.17-8.75.25-9a.19.19,0,0,1,.11-.12.2.2,0,0,1,.15,0l42.7,24.22a.16.16,0,0,1,.08.2c0,.07-1.68,6.41-.3,8.24a.18.18,0,0,1,0,.22A.2.2,0,0,1,239.7,270.08ZM197.1,246l42.16,23.44c-.85-2.22.29-7,.51-7.85l-42.38-24C197.06,238.75,195.6,244.35,197.1,246Z" transform="translate(-86.61 -21)"/><path class="cls-54" d="M284.06,280.18c-4.6-2.19-2.64-7.47-7.78-8.3l-6,3.49c4.8.65.69,7.21,8,8.19l4.89-.6Z" transform="translate(-86.61 -21)"/><polygon class="cls-55" points="177.77 242.61 231.84 211.39 206.95 197.02 163.03 234.13 177.77 242.61"/><path class="cls-56" d="M264.19,262.4l51.6-29.77a46,46,0,0,1,0-12.5l-52.17,29.94s-4.45,10,.22,12.67Z" transform="translate(-86.61 -21)"/><path class="cls-2" d="M264.38,250.46" transform="translate(-86.61 -21)"/><path class="cls-57" d="M318.45,232.39l-53.29,30.75c-4.16-3.07,0-12,0-12l53.29-30.77v-1.09l-55.14,30.6s-5.32,11.3,1.07,15l54.07-31.22Z" transform="translate(-86.61 -21)"/><polygon class="cls-58" points="100.8 185.05 177.77 229.46 231.84 198.24 154.87 153.83 100.8 185.05"/><path class="cls-59" d="M264.38,264.83c-5-3.87,0-14.37,0-14.37l-77-44.41s-5,10.5,0,14.37Z" transform="translate(-86.61 -21)"/><path class="cls-60" d="M248.81,253.28c-1.76-2.82,0-8.73,0-8.73L202.1,217.61s-1.89,5.52,0,8.72Z" transform="translate(-86.61 -21)"/><path class="cls-61" d="M190.57,219.54c-1.75-2.82,0-8.72,0-8.72l8.72,5.16s-1.89,5.52,0,8.72Z" transform="translate(-86.61 -21)"/><path class="cls-62" d="M251.94,255.05c-1.76-2.81,0-8.72,0-8.72l2.28,1.34s-1.9,5.52,0,8.72Z" transform="translate(-86.61 -21)"/><path class="cls-63" d="M286,256.39c-4.94-6-.64-7-5.89-10.09l-8.88,5.27c5.64,1.46,1.89,8.23,8.12,8.95,0,0-.89-4.38.86-6.53C280.19,254,283.18,257,286,256.39Z" transform="translate(-86.61 -21)"/><path class="cls-64" d="M266.3,61.4a167.41,167.41,0,0,1,8.14-23l3.23.47-4.22,19.64A15.64,15.64,0,0,1,266.3,61.4Z" transform="translate(-86.61 -21)"/><polygon class="cls-65" points="164.64 69.11 164.96 69.11 164.88 70.89 163.96 70.97 163.96 70.04 164.64 69.11"/><path class="cls-66" d="M262.13,93.51c.52,2.29-2,4.82-5.66,5.65s-7-.37-7.53-2.67,2-4.83,5.65-5.65S261.61,91.21,262.13,93.51Z" transform="translate(-86.61 -21)"/><path class="cls-66" d="M251.44,86.52a27.16,27.16,0,0,1-.75,6.75c1.48,2.34,7.81,3.81,8.76,1.12a7.74,7.74,0,0,1,.74-4.11C261.19,88.58,251.44,86.52,251.44,86.52Z" transform="translate(-86.61 -21)"/><path class="cls-67" d="M251.44,86.52s0,.63,0,1.62a9.93,9.93,0,0,0,8,5.51,7,7,0,0,1,.77-3.37C261.19,88.58,251.44,86.52,251.44,86.52Z" transform="translate(-86.61 -21)"/><path class="cls-68" d="M277,67.78c-.13,3.42-8.54,16.63-9.44,35-1.79,5.32-12-16.66-9.87-25.83,1.9-8.34,3.86-16.56,6.66-23C266.85,48.31,276.79,50.66,277,67.78Z" transform="translate(-86.61 -21)"/><path class="cls-69" d="M238.9,215.63c0,.5,0,1.07,0,2s2.05,2.33,3.66,2.77a.16.16,0,0,0,.19-.16l0-.48a10,10,0,0,1,2.08,1.09c.08.05.17.49.26.55,1.18.86,2.39,1.58,3.4,2.25,1.47,1,4.24-.17,5-.5a.3.3,0,0,0,.17-.28v-.35l-2.95.13-5.1-2.82-6-3.39-.07-.58-.61-.27" transform="translate(-86.61 -21)"/><path class="cls-65" d="M239.46,214.18c-.05.47,1.69,1.44,3.31,1.46s3.73.64,3-.55a58.84,58.84,0,0,0,7.82,6.39c.14.1.11.82.11,1h0a.26.26,0,0,1-.16.24c-.68.27-3.31,1.24-4.79.25-1.7-1.13-4.4-3.2-6-3.56s-3.85-1.86-3.86-2.82,0-.91,0-1.41A1.06,1.06,0,0,1,239.46,214.18Z" transform="translate(-86.61 -21)"/><path class="cls-70" d="M240,139.81c-6.33,5.17,0,28,3.19,40.05-.15.41-1,2.19-1,2.19-.24,3.09-1.23,6.44-1.4,10.89-.3,7.53-1.46,21.52-1.46,21.52.43,2,7.41,3,7.23.11l5.12-36.19a222.8,222.8,0,0,0-1.2-39.39A8.63,8.63,0,0,0,240,139.81Z" transform="translate(-86.61 -21)"/><path class="cls-69" d="M262.92,203.68l.27,2c.12.91,2.3,2.09,3.95,2.34a.16.16,0,0,0,.17-.18l-.08-.48a10.67,10.67,0,0,1,2.19.85c.09.05.23.47.32.53,1.27.71,2.56,1.29,3.63,1.84,1.58.81,4.2-.65,4.88-1.06a.29.29,0,0,0,.14-.29l0-.35-2.92.46L270,207.14l-6.34-2.69-.14-.57-.64-.2" transform="translate(-86.61 -21)"/><path class="cls-65" d="M263.32,202.18c0,.47,1.84,1.23,3.45,1.07s3.78.22,3-.89a49.07,49.07,0,0,0,8.43,5.59c.15.08.26.68.28.85h0a.24.24,0,0,1-.13.26c-.64.35-3.15,1.61-4.73.8-1.82-.94-4.74-2.69-6.39-2.86s-4-1.41-4.15-2.37-.12-.9-.19-1.4A1,1,0,0,1,263.32,202.18Z" transform="translate(-86.61 -21)"/><path class="cls-71" d="M253.46,127c-5.7,5.86,5.12,29,9.66,40.63-.1.42-.74,2.28-.74,2.28.11,3.1-.49,6.54-.16,11,.56,7.52,1,21.55,1,21.55.65,2,7.7,2.11,7.2-.71l1-36.54a223.61,223.61,0,0,0-5.65-39S258.38,122,253.46,127Z" transform="translate(-86.61 -21)"/><path class="cls-72" d="M266.65,131.11c-.86-.07-3,2-7.6,3.49a6.82,6.82,0,0,0-3.3,2.43c-1.82-.77-7.76-2.79-11.68,1.63-1.35,1.52-1.62,4.06-1.2,7.2,2.39,1.4,6.77,1.22,10.7.82s9.92-1.92,12.72-4c.4-4,.5-7,.74-9.06C266.91,132.83,266.78,132,266.65,131.11Z" transform="translate(-86.61 -21)"/><path class="cls-73" d="M259.35,97.54s-3.07,1.2-4.08,3.48,5.91,4,5.91,4,2-4.85,2.05-6.68S259.35,97.54,259.35,97.54Z" transform="translate(-86.61 -21)"/><path class="cls-74" d="M251.16,90.82a3.46,3.46,0,0,0,.16,1.65c.77,2,3.39,4.65,8,5.07a9.53,9.53,0,0,0-3.16,3.23C252.88,99.89,248.86,93.84,251.16,90.82Z" transform="translate(-86.61 -21)"/><path class="cls-75" d="M259.35,97.54a5.45,5.45,0,0,1,3.1,1.42s-.64-6.19-3.1-7.52C259.61,91.79,261.06,93.84,259.35,97.54Z" transform="translate(-86.61 -21)"/><path class="cls-76" d="M269,98.57c0-4.14-2.08-8.09-5-9.9l-1.67-.41-5.94.54s8.63,4.8,4.74,15c0,0-12.7-6-9.83-13.7A40.81,40.81,0,0,0,246.42,92a7.51,7.51,0,0,0-2.09-2.12C242.09,87.33,229.16,75.2,225,72.54c-4.72-3-9.62,17.59-1.48,22.3,7.6,4.38,12.43,8.15,15.15,13.72-2.74,25.54-3.9,80.46-1.45,91,5.75,5.86,8.16,5.12,14,2.64s7.17,0,13.52-2.63,9.4-9.77,9.4-9.77S269,105.58,269,98.57Z" transform="translate(-86.61 -21)"/><path class="cls-77" d="M226.64,82.88c-.28,5-1.71,8.93-3.2,8.85s-2.46-4.19-2.18-9.16,1.72-8.94,3.2-8.85S226.93,77.9,226.64,82.88Z" transform="translate(-86.61 -21)"/><path class="cls-64" d="M225.47,82.72c-11-7.59-15.67-12.45-15.67-12.45l3.34-4.22,11.93,9A15.56,15.56,0,0,1,225.47,82.72Z" transform="translate(-86.61 -21)"/><path class="cls-78" d="M266.85,198.45c-4.16-25.38-3.7-58.66-3.43-78.62.11-7.7-.13-17.69-1.33-21.16a14.54,14.54,0,0,1-1,5.15,26.42,26.42,0,0,1-2.45-1.37c.24,2.33.41,10,.31,17.32-.28,20.27-.68,54.67,3.65,80.52a20.24,20.24,0,0,0,2.17-.75A14.24,14.24,0,0,0,266.85,198.45Z" transform="translate(-86.61 -21)"/><path class="cls-79" d="M265.16,199.35c-4.27-25.6-3.9-60.1-3.67-80.65.08-7.72.14-13.46-.09-15.81-.1.3-.2.61-.32.93,0,0-.2-.09-.52-.26.17,2.57.11,8,0,15.13-.22,20.64-.6,55.32,3.71,81l.46-.17Z" transform="translate(-86.61 -21)"/><path class="cls-64" d="M208.89,62.93c.43-2.58-1.74-3-2.3-5.16s-2.36-1-2,.32,3.55,5,3.55,5Z" transform="translate(-86.61 -21)"/><rect class="cls-80" x="198.55" y="58.52" width="20.79" height="15.07" transform="translate(-59.36 167.56) rotate(-51.53)"/><path class="cls-64" d="M206.23,64.38a2.19,2.19,0,0,1-1.89.71,13.44,13.44,0,0,1-3.15-1.2c-1.07-.7-2.11-1.16-1.15-3.2s3.77-4.09,5-2.39a13.26,13.26,0,0,1,2.21,3.62A3.32,3.32,0,0,1,206.23,64.38Z" transform="translate(-86.61 -21)"/><path class="cls-64" d="M274.39,37.93a10,10,0,0,0-.57-3.06c-.47-1.36.09-1.88.76-2.9s1.38-.61,1.38-.61.37-1,1.26-.88,3.68.84,4.1,1.82-.33,4.32-1.4,5-2.23,1.3-2.36,1.75-3,.16-3,.16Z" transform="translate(-86.61 -21)"/><path class="cls-81" d="M253.59,124.14c-1.72-4.49-.57-31.29-4-33.58a7.08,7.08,0,0,0-3.34,1.3c2.74,2.92,1.69,29.36,3.41,33.85l3.36,1.78Z" transform="translate(-86.61 -21)"/><path class="cls-82" d="M268.39,116.52c-1.77-4.25-.78-28.08-7.31-30.62-1.75.18-2.2.78-2.2.78,5.12,2.59,4.06,27.2,5.83,31.45l3.27,1.62Z" transform="translate(-86.61 -21)"/><path class="cls-64" d="M261.9,73.92a16.4,16.4,0,0,1,2,7.14c-.14.49.7,1.44.5,3.5-.15,1.5-.46,4.54-.61,6.09a1.29,1.29,0,0,1-1.05,1.15c-3,.53-7.82.84-11.33-3.94a10.59,10.59,0,0,0-2.48-2.23c-.78-.24-3.86-4.17-3.86-7.34,0-3.37,1.86-8.47,8.77-8.47A9.61,9.61,0,0,1,261.9,73.92Z" transform="translate(-86.61 -21)"/><path class="cls-83" d="M263.86,81.06a16.4,16.4,0,0,0-2-7.14,7.91,7.91,0,0,0-1.18-1.39c.17.23.26.37.26.37a16.33,16.33,0,0,1,2,7.13c-.15.49.7,1.44.49,3.5-.15,1.5-.45,4.54-.61,6.1a1.27,1.27,0,0,1-1.05,1.14c-2.66.47-6.73.76-10.06-2.49,3.48,4.32,8.08,4,11,3.52a1.29,1.29,0,0,0,1.05-1.15c.15-1.55.46-4.59.61-6.09C264.56,82.5,263.72,81.55,263.86,81.06Z" transform="translate(-86.61 -21)"/><path class="cls-84" d="M252.4,76.43c1.89,1.37-.76,6.93-.4,8.36-.54.23-.9-1.6-1.79-1.55s-.15,1.19-.15,1.19l1.43,3-.17,2c-.29-3.37-7-3.62-6.52-12,.14-2,1.38-5.33,2-4.76S251.88,74.48,252.4,76.43Z" transform="translate(-86.61 -21)"/><path class="cls-85" d="M249.63,85.48c-.74-.67-3.5-4.31-4.78-6,.67,6.34,6.2,6.83,6.47,9.89l.17-2-1.22-2.53Z" transform="translate(-86.61 -21)"/><path class="cls-86" d="M250.21,83.24c-1.32-1.38-3-.2-1.92,1.44.24.35.75.56.93.88a4,4,0,0,0,.3.48c.3.26.62.56.91.86a.8.8,0,0,0,.89-.31Z" transform="translate(-86.61 -21)"/><path class="cls-64" d="M251.23,83.31c-.83-1.72-2.79-1.11-2.27.78.12.41.54.76.61,1.13.37,1.83,1,2,1.68,1.63" transform="translate(-86.61 -21)"/><path class="cls-84" d="M251,77c4.83,1.58,11.45-.92,11.87-1.13,1.27-.34.74-3-.89-3.72s-4.8-2.8-8.58-2.84c-3.61,0-6.92,1.18-8,5.32C246.73,75.31,251,77,251,77Z" transform="translate(-86.61 -21)"/><path class="cls-87" d="M288.21,43.81c2.7,3.2,6.53,4.39,8.58,2.67l8.09-6.61-9.82-11.51-8,6.55C285,36.63,285.52,40.62,288.21,43.81Z" transform="translate(-86.61 -21)"/><path class="cls-65" d="M303.63,31c-2.69-3.2-6.53-4.39-8.57-2.67s-1.52,5.71,1.18,8.9,6.53,4.39,8.57,2.67S306.32,34.22,303.63,31Z" transform="translate(-86.61 -21)"/><polygon class="cls-88" points="203.93 0 221.34 6.61 224.32 24.98 206.91 18.38 203.93 0"/><path class="cls-89" d="M301.87,34a1.13,1.13,0,1,1,.16-1.6A1.13,1.13,0,0,1,301.87,34Z" transform="translate(-86.61 -21)"/><path class="cls-90" d="M304.49,49a.42.42,0,0,1-.28-.1c-3.47-2.89-3.06-7.42-2.75-10.73.19-2,.35-3.8-.42-4.36a.44.44,0,1,1,.52-.72c1.18.86,1,2.76.78,5.16-.3,3.29-.68,7.38,2.43,10a.45.45,0,0,1,.06.63A.46.46,0,0,1,304.49,49Z" transform="translate(-86.61 -21)"/><path class="cls-91" d="M305.12,50.69l-1.58-1.94a.78.78,0,0,1,.11-1.11h0a.8.8,0,0,1,1.11.11l1.58,2a.77.77,0,0,1-.11,1.1h0A.78.78,0,0,1,305.12,50.69Z" transform="translate(-86.61 -21)"/><path class="cls-92" d="M318,146.37c-10.26-4.94-16.81,4.37-16.81,4.37S318.8,159.16,319,166s3.28-12.73,3.28-12.73Z" transform="translate(-86.61 -21)"/><path class="cls-93" d="M308.14,183.55s15-18.12,9.84-37.18c0,0,16.2,11.07,14.76,26.65Z" transform="translate(-86.61 -21)"/><path class="cls-94" d="M288.07,96s11.51-2.59,18.51,2.34l-.21,11.85s-10.62-4-18-1Z" transform="translate(-86.61 -21)"/><path class="cls-95" d="M197.59,180.77s-4.53-12.27,5-20.64l-14-1.49c-9.54,8.37-5,20.65-5,20.65Z" transform="translate(-86.61 -21)"/><path class="cls-96" d="M191.6,124.4s-4-16.26-5.92-22.05l26-1.24c-.47,1.69.54,11.94,2,14.8L193.42,125Z" transform="translate(-86.61 -21)"/><path class="cls-97" d="M194.16,128.45s-2,0-3.28-3.25c0,0,14.93-16.53,15.37-18.28l7.39,9Z" transform="translate(-86.61 -21)"/><path class="cls-98" d="M222,150.27a81.61,81.61,0,0,0-3.76-15.71s7.71-3.85,10.19-8.26c0,0,9.83,5,13.23,21.12Z" transform="translate(-86.61 -21)"/><path class="cls-99" d="M204.08,134.44l.13.61-2.94.6-.12-.62a1.49,1.49,0,0,1,1.17-1.76h0A1.49,1.49,0,0,1,204.08,134.44Z" transform="translate(-86.61 -21)"/><rect class="cls-100" x="192.47" y="147.9" width="26.27" height="2.99" transform="translate(13.66 359.69) rotate(-101.52)"/><polygon class="cls-101" points="123.95 145.22 123.97 151.76 123.55 151.85 121.02 145.82 123.95 145.22"/><rect class="cls-102" x="201.86" y="134.44" width="2.12" height="3.6" transform="translate(23.34 341.28) rotate(-101.52)"/><rect class="cls-103" x="202.96" y="136" width="0.44" height="2.99" transform="translate(22.42 343.04) rotate(-101.52)"/><path class="cls-104" d="M209.68,161l1.07,5.24a.1.1,0,0,1-.08.13l-3.08.63a.11.11,0,0,1-.13-.08l-1.07-5.25a.1.1,0,0,1,.08-.13l3.09-.63A.11.11,0,0,1,209.68,161Z" transform="translate(-86.61 -21)"/><path class="cls-105" d="M201.14,136l-.52.1a.34.34,0,0,0-.26.39l1.89,9.26a.09.09,0,0,0,.11.07h0a.38.38,0,0,0,.3-.45L201,136.93l.32-.07Z" transform="translate(-86.61 -21)"/><path class="cls-106" d="M340.22,143.64l-.6-.32,1.51-2.88.6.31a1.63,1.63,0,0,1,.69,2.2h0A1.64,1.64,0,0,1,340.22,143.64Z" transform="translate(-86.61 -21)"/><rect class="cls-107" x="312.3" y="133.03" width="28.55" height="3.25" transform="translate(12.98 -157.01) rotate(27.61)"/><polygon class="cls-108" points="222.37 106.3 216.85 101.83 217.06 101.42 223.88 103.42 222.37 106.3"/><rect class="cls-109" x="338.34" y="139.46" width="2.31" height="3.91" transform="translate(17.59 -162.23) rotate(27.61)"/><rect class="cls-110" x="338.02" y="139.15" width="0.48" height="3.25" transform="translate(17.16 -161.74) rotate(27.61)"/><path class="cls-111" d="M314,130.15l-5.16-2.7a.13.13,0,0,1-.05-.16l1.59-3a.12.12,0,0,1,.16-.05l5.16,2.69a.12.12,0,0,1,.05.16l-1.59,3A.13.13,0,0,1,314,130.15Z" transform="translate(-86.61 -21)"/><path class="cls-112" d="M340.94,140.1l.27-.51a.37.37,0,0,0-.15-.49l-9.1-4.75a.1.1,0,0,0-.14,0l0,.05a.41.41,0,0,0,.17.56l8.27,4.33-.17.32Z" transform="translate(-86.61 -21)"/></g></g></svg>