<svg xmlns="http://www.w3.org/2000/svg" xmlns:xlink="http://www.w3.org/1999/xlink" viewBox="0 0 322.47 427.45"><defs><style>.cls-2{fill:#ffcfff}.cls-64{fill:#eab18b}.cls-65{fill:#273035}.cls-66{fill:#dda07f}.cls-69{fill:#353d44}.cls-84{fill:#6d5e57}</style><linearGradient id="Degradado_sin_nombre_14" y1="314.27" x2="322.47" y2="314.27" gradientUnits="userSpaceOnUse"><stop offset="0" stop-color="#edddff"/><stop offset="1" stop-color="#fffcff"/></linearGradient><linearGradient id="Degradado_sin_nombre_6" x1="175.74" y1="366.61" x2="322.47" y2="366.61" gradientUnits="userSpaceOnUse"><stop offset="0" stop-color="#7896ff"/><stop offset=".29" stop-color="#7ea7ff"/><stop offset="1" stop-color="#8bceff"/></linearGradient><linearGradient id="Degradado_sin_nombre_2" y1="358.16" x2="175.74" y2="358.16" gradientUnits="userSpaceOnUse"><stop offset="0" stop-color="#a4beff"/><stop offset=".2" stop-color="#a6c8ff"/><stop offset="1" stop-color="#aeefff"/></linearGradient><linearGradient id="Degradado_sin_nombre_10" x1="181.39" y1="373.33" x2="221.7" y2="303.51" gradientUnits="userSpaceOnUse"><stop offset="0" stop-color="#e462ff"/><stop offset=".47" stop-color="#cd89ff"/><stop offset="1" stop-color="#b0baff"/></linearGradient><linearGradient id="Degradado_sin_nombre_12" x1="260.5" y1="360.22" x2="341.15" y2="360.22" gradientUnits="userSpaceOnUse"><stop offset="0" stop-color="#ff9eff"/><stop offset=".56" stop-color="#ffc5ff"/><stop offset="1" stop-color="#ffe6ff"/></linearGradient><linearGradient id="Degradado_sin_nombre_11" x1="259.89" y1="361" x2="344.59" y2="361" gradientUnits="userSpaceOnUse"><stop offset="0" stop-color="#fe8cff"/><stop offset=".61" stop-color="#e4b3ff"/><stop offset="1" stop-color="#d1ceff"/></linearGradient><linearGradient id="Degradado_sin_nombre_10-2" x1="141.08" y1="333.01" x2="181.39" y2="263.19" xlink:href="#Degradado_sin_nombre_10"/><linearGradient id="Degradado_sin_nombre_10-3" x1="203.5" y1="358.67" x2="211.57" y2="344.7" xlink:href="#Degradado_sin_nombre_10"/><linearGradient id="Degradado_sin_nombre_9" x1="230.59" y1="377.23" x2="254.2" y2="377.23" gradientUnits="userSpaceOnUse"><stop offset="0" stop-color="#ffadff"/><stop offset=".82" stop-color="#fdd4ff"/><stop offset="1" stop-color="#fdddff"/></linearGradient><linearGradient id="Degradado_sin_nombre_9-2" x1="230.59" y1="370.18" x2="254.2" y2="370.18" xlink:href="#Degradado_sin_nombre_9"/><linearGradient id="Degradado_sin_nombre_9-3" x1="156.94" y1="346.53" x2="221.26" y2="346.53" xlink:href="#Degradado_sin_nombre_9"/><linearGradient id="Degradado_sin_nombre_9-4" x1="156.94" y1="339.49" x2="221.26" y2="339.49" xlink:href="#Degradado_sin_nombre_9"/><linearGradient id="Degradado_sin_nombre_8" x1="279.6" y1="371.2" x2="286.65" y2="383.42" gradientUnits="userSpaceOnUse"><stop offset="0" stop-color="#ff4eff"/><stop offset=".29" stop-color="#ff6dff"/><stop offset=".76" stop-color="#ff9bff"/><stop offset="1" stop-color="#ffadff"/></linearGradient><linearGradient id="Degradado_sin_nombre_2-2" x1="156.08" y1="314.16" x2="245.22" y2="314.16" xlink:href="#Degradado_sin_nombre_2"/><linearGradient id="Degradado_sin_nombre_7" x1="258.32" y1="335.96" x2="328.38" y2="335.96" gradientUnits="userSpaceOnUse"><stop offset="0" stop-color="#ebdcff"/><stop offset="1" stop-color="#f3fcff"/></linearGradient><linearGradient id="Degradado_sin_nombre_6-2" x1="257.71" y1="336.74" x2="331.83" y2="336.74" xlink:href="#Degradado_sin_nombre_6"/><linearGradient id="Degradado_sin_nombre_2-3" x1="142.82" y1="308.01" x2="177.86" y2="247.32" xlink:href="#Degradado_sin_nombre_2"/><linearGradient id="Degradado_sin_nombre_2-4" x1="207.89" y1="335.19" x2="215.97" y2="321.2" xlink:href="#Degradado_sin_nombre_2"/><linearGradient id="Degradado_sin_nombre_5" x1="180.01" y1="328.2" x2="241.61" y2="328.2" gradientUnits="userSpaceOnUse"><stop offset="0" stop-color="#fae5ff"/><stop offset="1" stop-color="#fffcff"/></linearGradient><linearGradient id="Degradado_sin_nombre_13" x1="276.05" y1="345.78" x2="288.12" y2="366.68" gradientUnits="userSpaceOnUse"><stop offset="0" stop-color="#ff69ff"/><stop offset=".05" stop-color="#ff6dff"/><stop offset=".68" stop-color="#ff9bff"/><stop offset="1" stop-color="#ffadff"/></linearGradient><linearGradient id="Degradado_sin_nombre_10-4" x1="151.64" y1="288.5" x2="231.3" y2="288.5" xlink:href="#Degradado_sin_nombre_10"/><linearGradient id="Degradado_sin_nombre_12-2" x1="256.69" y1="310.44" x2="313.85" y2="310.44" xlink:href="#Degradado_sin_nombre_12"/><linearGradient id="Degradado_sin_nombre_11-2" x1="255.97" y1="311.36" x2="317.91" y2="311.36" xlink:href="#Degradado_sin_nombre_11"/><linearGradient id="Degradado_sin_nombre_10-5" x1="148.67" y1="281.13" x2="177.23" y2="231.67" xlink:href="#Degradado_sin_nombre_10"/><linearGradient id="Degradado_sin_nombre_10-6" x1="216.24" y1="313.11" x2="225.75" y2="296.63" xlink:href="#Degradado_sin_nombre_10"/><linearGradient id="Degradado_sin_nombre_9-5" x1="194.66" y1="300.66" x2="204.18" y2="284.18" xlink:href="#Degradado_sin_nombre_9"/><linearGradient id="Degradado_sin_nombre_9-6" x1="238.63" y1="326.04" x2="248.14" y2="309.56" xlink:href="#Degradado_sin_nombre_9"/><linearGradient id="Degradado_sin_nombre_9-7" x1="183.87" y1="294.43" x2="193.39" y2="277.94" xlink:href="#Degradado_sin_nombre_9"/><linearGradient id="Degradado_sin_nombre_9-8" x1="248.77" y1="331.9" x2="258.28" y2="315.41" xlink:href="#Degradado_sin_nombre_9"/><linearGradient id="Degradado_sin_nombre_8-2" x1="277.37" y1="313.97" x2="288.7" y2="333.59" xlink:href="#Degradado_sin_nombre_8"/><linearGradient id="Degradado_sin_nombre_2-5" x1="154.1" y1="262.53" x2="226.39" y2="262.53" xlink:href="#Degradado_sin_nombre_2"/><linearGradient id="Degradado_sin_nombre_7-2" x1="254.05" y1="284.21" x2="310.06" y2="284.21" xlink:href="#Degradado_sin_nombre_7"/><linearGradient id="Degradado_sin_nombre_6-3" x1="253.53" y1="284.87" x2="313" y2="284.87" xlink:href="#Degradado_sin_nombre_6"/><linearGradient id="Degradado_sin_nombre_2-6" x1="143.86" y1="256.8" x2="171.87" y2="208.29" xlink:href="#Degradado_sin_nombre_2"/><linearGradient id="Degradado_sin_nombre_2-7" x1="213.03" y1="283.63" x2="219.93" y2="271.68" xlink:href="#Degradado_sin_nombre_2"/><linearGradient id="Degradado_sin_nombre_5-2" x1="181.46" y1="265.39" x2="188.34" y2="253.47" xlink:href="#Degradado_sin_nombre_5"/><linearGradient id="Degradado_sin_nombre_5-3" x1="242.48" y1="300.6" x2="249.36" y2="288.67" xlink:href="#Degradado_sin_nombre_5"/><linearGradient id="Degradado_sin_nombre_5-4" x1="212.05" y1="281.02" x2="216.87" y2="272.68" xlink:href="#Degradado_sin_nombre_5"/><linearGradient id="Degradado_sin_nombre_13-2" x1="266.58" y1="291.16" x2="277.06" y2="309.32" xlink:href="#Degradado_sin_nombre_13"/><linearGradient id="Degradado_sin_nombre_10-7" x1="166.26" y1="239.75" x2="244.89" y2="239.75" xlink:href="#Degradado_sin_nombre_10"/><linearGradient id="Degradado_sin_nombre_12-3" x1="263.7" y1="261.31" x2="329.12" y2="261.31" xlink:href="#Degradado_sin_nombre_12"/><linearGradient id="Degradado_sin_nombre_11-3" x1="263.28" y1="261.85" x2="331.5" y2="261.85" xlink:href="#Degradado_sin_nombre_11"/><linearGradient id="Degradado_sin_nombre_10-8" x1="149.84" y1="236.22" x2="182.57" y2="179.52" xlink:href="#Degradado_sin_nombre_10"/><linearGradient id="Degradado_sin_nombre_10-9" x1="217.31" y1="259.07" x2="222.92" y2="249.36" xlink:href="#Degradado_sin_nombre_10"/><linearGradient id="Degradado_sin_nombre_9-9" x1="176.05" y1="230.4" x2="179.61" y2="230.4" xlink:href="#Degradado_sin_nombre_9"/><linearGradient id="Degradado_sin_nombre_9-10" x1="179.26" y1="232.26" x2="182.83" y2="232.26" xlink:href="#Degradado_sin_nombre_9"/><linearGradient id="Degradado_sin_nombre_9-11" x1="182.48" y1="234.11" x2="186.05" y2="234.11" xlink:href="#Degradado_sin_nombre_9"/><linearGradient id="Degradado_sin_nombre_9-12" x1="185.77" y1="235.89" x2="189.34" y2="235.89" xlink:href="#Degradado_sin_nombre_9"/><linearGradient id="Degradado_sin_nombre_9-13" x1="196.08" y1="253.6" x2="240.16" y2="253.6" xlink:href="#Degradado_sin_nombre_9"/><linearGradient id="Degradado_sin_nombre_8-3" x1="274.37" y1="272.98" x2="280.88" y2="284.25" xlink:href="#Degradado_sin_nombre_8"/><linearGradient id="Degradado_sin_nombre_2-8" x1="163.03" y1="219.82" x2="231.84" y2="219.82" xlink:href="#Degradado_sin_nombre_2"/><linearGradient id="Degradado_sin_nombre_7-3" x1="261.71" y1="241.44" x2="315.79" y2="241.44" xlink:href="#Degradado_sin_nombre_7"/><linearGradient id="Degradado_sin_nombre_6-4" x1="261.24" y1="242.04" x2="318.45" y2="242.04" xlink:href="#Degradado_sin_nombre_6"/><linearGradient id="Degradado_sin_nombre_2-9" x1="152.8" y1="215.07" x2="179.84" y2="168.22" xlink:href="#Degradado_sin_nombre_2"/><linearGradient id="Degradado_sin_nombre_2-10" x1="222.78" y1="240.84" x2="229.02" y2="230.04" xlink:href="#Degradado_sin_nombre_2"/><linearGradient id="Degradado_sin_nombre_5-5" x1="201.26" y1="235.44" x2="248.81" y2="235.44" xlink:href="#Degradado_sin_nombre_5"/><linearGradient id="Degradado_sin_nombre_5-6" x1="189.79" y1="217.76" x2="199.29" y2="217.76" xlink:href="#Degradado_sin_nombre_5"/><linearGradient id="Degradado_sin_nombre_5-7" x1="251.16" y1="251.36" x2="254.22" y2="251.36" xlink:href="#Degradado_sin_nombre_5"/><linearGradient id="Degradado_sin_nombre_92" x1="257.17" y1="73.48" x2="275.79" y2="80.25" gradientUnits="userSpaceOnUse"><stop offset="0" stop-color="#246b93"/><stop offset=".29" stop-color="#2e5c82"/><stop offset="1" stop-color="#433b5b"/></linearGradient><linearGradient id="Degradado_sin_nombre_91" x1="237.27" y1="176.98" x2="252.05" y2="176.98" gradientUnits="userSpaceOnUse"><stop offset="0" stop-color="#9065fc"/><stop offset=".47" stop-color="#798cfd"/><stop offset="1" stop-color="#5cbdff"/></linearGradient><linearGradient id="Degradado_sin_nombre_91-2" x1="251.84" y1="164.23" x2="271.4" y2="164.23" xlink:href="#Degradado_sin_nombre_91"/><linearGradient id="Degradado_sin_nombre_90" x1="259.2" y1="104.99" x2="259.2" y2="97.23" gradientUnits="userSpaceOnUse"><stop offset="0" stop-color="#5af2ca"/><stop offset=".64" stop-color="#53cef1"/><stop offset=".86" stop-color="#50c1ff"/></linearGradient><linearGradient id="Degradado_sin_nombre_89" x1="252.04" y1="90.38" x2="257.11" y2="100.31" gradientUnits="userSpaceOnUse"><stop offset=".36" stop-color="#50c1ff"/><stop offset=".52" stop-color="#53cef1"/><stop offset="1" stop-color="#5af2ca"/></linearGradient><linearGradient id="Degradado_sin_nombre_79" x1="259.35" y1="95.2" x2="262.45" y2="95.2" gradientUnits="userSpaceOnUse"><stop offset="0" stop-color="#50c1ff"/><stop offset=".25" stop-color="#53cef1"/><stop offset="1" stop-color="#5af2ca"/></linearGradient><linearGradient id="Degradado_sin_nombre_84" x1="219.18" y1="138.13" x2="274.16" y2="138.13" gradientUnits="userSpaceOnUse"><stop offset="0" stop-color="#433b5b"/><stop offset=".71" stop-color="#2e5c82"/><stop offset="1" stop-color="#246b93"/></linearGradient><linearGradient id="Degradado_sin_nombre_88" x1="221.21" y1="82.72" x2="226.69" y2="82.72" gradientUnits="userSpaceOnUse"><stop offset="0" stop-color="#29434f"/><stop offset="1" stop-color="#23212b"/></linearGradient><linearGradient id="Degradado_sin_nombre_87" x1="258.63" y1="149.48" x2="266.85" y2="149.48" gradientUnits="userSpaceOnUse"><stop offset="0" stop-color="#23212b"/><stop offset="1" stop-color="#29434f"/></linearGradient><linearGradient id="Degradado_sin_nombre_86" x1="260.47" y1="151.3" x2="265.16" y2="151.3" gradientUnits="userSpaceOnUse"><stop offset="0" stop-color="#4e486b"/><stop offset=".5" stop-color="#3d6a92"/><stop offset="1" stop-color="#2b90bc"/></linearGradient><linearGradient id="Degradado_sin_nombre_81" x1="196.58" y1="66.05" x2="221.31" y2="66.05" gradientTransform="rotate(51.53 208.949 66.058)" gradientUnits="userSpaceOnUse"><stop offset="0" stop-color="#f45184"/><stop offset=".29" stop-color="#f47084"/><stop offset=".76" stop-color="#f49e84"/><stop offset="1" stop-color="#f4b084"/></linearGradient><linearGradient id="Degradado_sin_nombre_85" x1="249.95" y1="127.49" x2="249.95" y2="90.56" gradientUnits="userSpaceOnUse"><stop offset="0" stop-color="#f4b084"/><stop offset=".24" stop-color="#f49e84"/><stop offset=".71" stop-color="#f47084"/><stop offset="1" stop-color="#f45184"/></linearGradient><linearGradient id="Degradado_sin_nombre_85-2" x1="263.63" y1="119.75" x2="263.63" y2="85.9" xlink:href="#Degradado_sin_nombre_85"/><linearGradient id="Degradado_sin_nombre_84-2" x1="298.5" y1="45.6" x2="290.38" y2="30.95" xlink:href="#Degradado_sin_nombre_84"/><linearGradient id="Degradado_sin_nombre_84-3" x1="203.93" y1="12.49" x2="224.32" y2="12.49" xlink:href="#Degradado_sin_nombre_84"/><linearGradient id="Degradado_sin_nombre_80" x1="300.02" y1="33.15" x2="302.29" y2="33.15" gradientUnits="userSpaceOnUse"><stop offset="0" stop-color="#5cbdff"/><stop offset=".53" stop-color="#798cfd"/><stop offset="1" stop-color="#9065fc"/></linearGradient><linearGradient id="Degradado_sin_nombre_81-2" x1="300.85" y1="41.03" x2="304.93" y2="41.03" xlink:href="#Degradado_sin_nombre_81"/><linearGradient id="Degradado_sin_nombre_83" x1="304.3" y1="49.72" x2="305.58" y2="48.72" xlink:href="#Degradado_sin_nombre_91"/><linearGradient id="Degradado_sin_nombre_4" x1="301.17" y1="156.18" x2="322.29" y2="156.18" gradientUnits="userSpaceOnUse"><stop offset="0" stop-color="#aeefff"/><stop offset=".8" stop-color="#a6c8ff"/><stop offset="1" stop-color="#a4beff"/></linearGradient><linearGradient id="Degradado_sin_nombre_3" x1="308.14" y1="164.96" x2="332.83" y2="164.96" gradientUnits="userSpaceOnUse"><stop offset="0" stop-color="#b0baff"/><stop offset=".53" stop-color="#cd89ff"/><stop offset="1" stop-color="#e462ff"/></linearGradient><linearGradient id="Degradado_sin_nombre_2-11" x1="288.07" y1="102.77" x2="306.58" y2="102.77" xlink:href="#Degradado_sin_nombre_2"/><linearGradient id="Degradado_sin_nombre_2-12" x1="186.13" y1="180.77" x2="199.19" y2="158.15" xlink:href="#Degradado_sin_nombre_2"/><linearGradient id="Degradado_sin_nombre_2-13" x1="199.66" y1="125.02" x2="199.66" y2="101.11" xlink:href="#Degradado_sin_nombre_2"/><linearGradient id="Degradado_sin_nombre_3-2" x1="197.31" y1="112.08" x2="203.61" y2="123" xlink:href="#Degradado_sin_nombre_3"/><linearGradient id="Degradado_sin_nombre_2-14" x1="229.96" y1="150.27" x2="229.96" y2="126.3" xlink:href="#Degradado_sin_nombre_2"/><linearGradient id="Degradado_sin_nombre_79-2" x1="201.12" y1="134.44" x2="204.21" y2="134.44" xlink:href="#Degradado_sin_nombre_79"/><linearGradient id="Degradado_sin_nombre_81-3" x1="204.02" y1="149.7" x2="207.19" y2="149.09" gradientTransform="rotate(101.52 205.603 149.395)" xlink:href="#Degradado_sin_nombre_81"/><linearGradient id="Degradado_sin_nombre_79-3" x1="121.02" y1="148.54" x2="123.97" y2="148.54" xlink:href="#Degradado_sin_nombre_79"/><linearGradient id="Degradado_sin_nombre_80-2" x1="200.95" y1="136.24" x2="204.9" y2="136.24" gradientTransform="rotate(101.52 202.918 136.242)" xlink:href="#Degradado_sin_nombre_80"/><linearGradient id="Degradado_sin_nombre_79-4" x1="201.67" y1="137.5" x2="204.69" y2="137.5" gradientTransform="rotate(101.52 203.179 137.505)" xlink:href="#Degradado_sin_nombre_79"/><linearGradient id="Degradado_sin_nombre_80-3" x1="206.56" y1="164.1" x2="210.59" y2="163.82" xlink:href="#Degradado_sin_nombre_80"/><linearGradient id="Degradado_sin_nombre_80-4" x1="200.36" y1="140.89" x2="202.72" y2="140.89" xlink:href="#Degradado_sin_nombre_80"/><linearGradient id="Degradado_sin_nombre_79-5" x1="218.7" y1="132.29" x2="222.06" y2="132.29" gradientTransform="matrix(-.63 .78 -.78 -.63 582.89 54.98)" xlink:href="#Degradado_sin_nombre_79"/><linearGradient id="Degradado_sin_nombre_81-4" x1="221.85" y1="148.88" x2="225.3" y2="148.21" gradientTransform="rotate(101.52 280.744 183.668)" xlink:href="#Degradado_sin_nombre_81"/><linearGradient id="Degradado_sin_nombre_79-6" x1="225.78" y1="170.43" x2="228.99" y2="170.43" gradientTransform="matrix(-.63 .78 -.78 -.63 496.28 33.98)" xlink:href="#Degradado_sin_nombre_79"/><linearGradient id="Degradado_sin_nombre_80-5" x1="218.51" y1="134.25" x2="222.81" y2="134.25" gradientTransform="rotate(101.52 277.15 186.375)" xlink:href="#Degradado_sin_nombre_80"/><linearGradient id="Degradado_sin_nombre_79-7" x1="219.3" y1="135.61" x2="222.58" y2="135.61" gradientTransform="rotate(101.52 277.494 186.107)" xlink:href="#Degradado_sin_nombre_79"/><linearGradient id="Degradado_sin_nombre_80-6" x1="224.61" y1="164.52" x2="228.99" y2="164.21" gradientTransform="matrix(-.63 .78 -.78 -.63 582.89 54.98)" xlink:href="#Degradado_sin_nombre_80"/><linearGradient id="Degradado_sin_nombre_80-7" x1="217.87" y1="139.3" x2="220.44" y2="139.3" gradientTransform="matrix(-.63 .78 -.78 -.63 582.89 54.98)" xlink:href="#Degradado_sin_nombre_80"/></defs><g style="isolation:isolate"><g id="OBJECTS"><path class="cls-2" d="M175.74 427.45l146.73-84.71-175.74-101.61L0 325.84l175.74 101.61z"/><path fill="url(#Degradado_sin_nombre_14)" d="M175.74 407.43l146.73-84.71-175.74-101.61L0 305.82l175.74 101.61z"/><path fill="url(#Degradado_sin_nombre_6)" d="M175.74 407.43v3.07l146.73-84.72v-3.06l-146.73 84.71z"/><path fill="url(#Degradado_sin_nombre_2)" d="M175.74 410.5L0 308.89v-3.07l175.74 101.61v3.07z"/><path fill="url(#Degradado_sin_nombre_10)" d="M177.36 371l80.62-46.55-32.25-18.62-80.62 46.55L177.36 371z"/><path d="M263.72 390.42l77.43-44.67a34.47 34.47 0 0 1 0-16.18L263 374.45s-5.76 12.92.28 16.42z" transform="translate(-86.61 -21)" fill="url(#Degradado_sin_nombre_12)"/><path d="M344.59 345.45L265 391.38c-5.38-4 0-15.59 0-15.59l79.62-46v-1.42l-82 45.75s-6.89 14.64 1.39 19.42L344.59 347z" transform="translate(-86.61 -21)" fill="url(#Degradado_sin_nombre_11)"/><path fill="url(#Degradado_sin_nombre_10-2)" d="M64.49 288.79l112.87 65.17 80.62-46.55-112.87-65.16-80.62 46.54z"/><path d="M264 393.58c-6.54-5 0-18.62 0-18.62l-112.9-65.17s-6.54 13.61 0 18.62z" transform="translate(-86.61 -21)" fill="url(#Degradado_sin_nombre_10-3)"/><path d="M254.2 385.86a7.77 7.77 0 0 1 0-3.84l-23.26-13.43s-.79 2.51 0 3.84z" transform="translate(-86.61 -21)" fill="url(#Degradado_sin_nombre_9)"/><path d="M254.2 378.81a7.72 7.72 0 0 1 0-3.83l-23.26-13.43s-.79 2.51 0 3.83z" transform="translate(-86.61 -21)" fill="url(#Degradado_sin_nombre_9-2)"/><path d="M221.26 366.91a7.86 7.86 0 0 1 0-3.83l-64-36.93s-.79 2.51 0 3.84z" transform="translate(-86.61 -21)" fill="url(#Degradado_sin_nombre_9-3)"/><path d="M221.26 359.87a7.9 7.9 0 0 1 0-3.84l-64-36.93s-.79 2.51 0 3.84z" transform="translate(-86.61 -21)" fill="url(#Degradado_sin_nombre_9-4)"/><path d="M291.45 380.54c-4.15-1.29-3-9.88-6.95-12.18l-9.43 5.55c4 2.3 2.8 10.89 6.95 12.18 0 0 .47-5.57 2-6.37-.02 0 5.31 1.28 7.43.82z" transform="translate(-86.61 -21)" fill="url(#Degradado_sin_nombre_8)"/><path fill="url(#Degradado_sin_nombre_2-2)" d="M175.17 343.69l70.05-40.44-32.25-18.62-56.89 48.08 19.09 10.98z"/><path d="M261.53 363.12l66.85-38.57a59.81 59.81 0 0 1 0-16.19l-67.58 38.78s-5.77 12.93.28 16.42z" transform="translate(-86.61 -21)" fill="url(#Degradado_sin_nombre_7)"/><path d="M331.83 324.25l-69 39.83c-5.38-4 0-15.59 0-15.59l69-39.87v-1.41l-71.43 39.64s-6.9 14.64 1.39 19.42l70-40.44z" transform="translate(-86.61 -21)" fill="url(#Degradado_sin_nombre_6-2)"/><path fill="url(#Degradado_sin_nombre_2-3)" d="M75.46 269.12l99.71 57.53 70.05-40.44-99.72-57.54-70.04 40.45z"/><path d="M261.79 366.27c-6.55-5 0-18.62 0-18.62l-99.72-57.53s-6.54 13.6 0 18.62z" transform="translate(-86.61 -21)" fill="url(#Degradado_sin_nombre_2-4)"/><path d="M241.61 351.3c-2.28-3.65 0-11.3 0-11.3l-60.51-34.91s-2.45 7.16 0 11.3z" transform="translate(-86.61 -21)" fill="url(#Degradado_sin_nombre_5)"/><path d="M294 363.09c-7.1-2.21-5.08-16.89-11.89-20.82l-11.5 6.82c6.81 3.93 4.79 18.62 11.89 20.82 0 0-1.85-8.16.79-9.52.02 0 7.1 3.43 10.71 2.7z" transform="translate(-86.61 -21)" fill="url(#Degradado_sin_nombre_13)"/><path fill="url(#Degradado_sin_nombre_10-4)" d="M174.18 315.97L231.3 283l-38.06-21.98-41.6 41.98 22.54 12.97z"/><path d="M260.49 335.11l53.36-30.76a70.3 70.3 0 0 1 0-19.1l-54.23 31s-6.8 15.25.33 19.37z" transform="translate(-86.61 -21)" fill="url(#Degradado_sin_nombre_12-2)"/><path d="M317.91 304L262 336.24c-6.35-4.68 0-18.4 0-18.4l55.94-32.28v-1.67l-58.76 32s-8.14 17.28 1.64 22.92l57.12-33z" transform="translate(-86.61 -21)" fill="url(#Degradado_sin_nombre_11-2)"/><path fill="url(#Degradado_sin_nombre_10-5)" d="M94.6 249.91l79.58 45.95 57.12-32.97-79.58-45.95-57.12 32.97z"/><path fill="#ffbfff" d="M115.5 251.9l55.24 31.89 39.66-22.89-55.24-31.89-39.66 22.89z"/><path d="M260.79 338.83c-7.72-5.92 0-22 0-22l-79.58-45.95s-7.72 16.06 0 22z" transform="translate(-86.61 -21)" fill="url(#Degradado_sin_nombre_10-6)"/><path d="M205 306.61c-7.72-5.92 0-22 0-22l-11.1-6.42s-7.72 16.06 0 22z" transform="translate(-86.61 -21)" fill="url(#Degradado_sin_nombre_9-5)"/><path d="M248.94 332c-7.72-5.92 0-22 0-22l-11.11-6.42s-7.72 16.06 0 22z" transform="translate(-86.61 -21)" fill="url(#Degradado_sin_nombre_9-6)"/><path d="M190.47 298.23c-7.72-5.92 0-22 0-22l-3.68-2.11s-7.72 16.05 0 22z" transform="translate(-86.61 -21)" fill="url(#Degradado_sin_nombre_9-7)"/><path d="M255.36 335.7c-7.72-5.93 0-22 0-22l-3.67-2.11s-7.72 16.05 0 22z" transform="translate(-86.61 -21)" fill="url(#Degradado_sin_nombre_9-8)"/><path d="M294.24 330.22c-6.67-2.07-4.77-15.85-11.16-19.54l-10.79 6.4c6.39 3.69 4.49 17.48 11.15 19.55 0 0-1.73-7.66.75-8.94 0 0 6.65 3.22 10.05 2.53z" transform="translate(-86.61 -21)" fill="url(#Degradado_sin_nombre_8-2)"/><path fill="url(#Degradado_sin_nombre_2-5)" d="M170.4 286.63l55.99-32.32-27.54-15.89-44.75 38.83 16.3 9.38z"/><path d="M256.79 306.29l53.27-30.72a50.91 50.91 0 0 1 0-13.82l-53.89 30.9s-4.93 11 .24 14z" transform="translate(-86.61 -21)" fill="url(#Degradado_sin_nombre_7-2)"/><path d="M313 275.31l-55.13 31.8c-4.6-3.39 0-13.31 0-13.31L313 262v-1.21l-57.17 31.61s-5.89 12.5 1.17 16.6l56-32.32z" transform="translate(-86.61 -21)" fill="url(#Degradado_sin_nombre_6-3)"/><path fill="url(#Degradado_sin_nombre_2-6)" d="M89.34 225.32l81.06 46.77 55.99-32.33L145.33 193l-55.99 32.32z"/><path d="M257 309c-5.58-4.28 0-15.89 0-15.89l-81-46.79s-5.58 11.61 0 15.9z" transform="translate(-86.61 -21)" fill="url(#Degradado_sin_nombre_2-7)"/><path d="M187.2 268.7c-5.59-4.28 0-15.89 0-15.89l-4.59-2.65s-5.59 11.61 0 15.89z" transform="translate(-86.61 -21)" fill="url(#Degradado_sin_nombre_5-2)"/><path d="M248.22 303.91c-5.59-4.29 0-15.9 0-15.9l-4.6-2.65s-5.58 11.61 0 15.9z" transform="translate(-86.61 -21)" fill="url(#Degradado_sin_nombre_5-3)"/><path d="M224.48 287.68c-1.78-2.37.34-10.34.34-10.34l-20.15-11.7s-2.58 8.55-.36 10.91z" transform="translate(-86.61 -21)" fill="url(#Degradado_sin_nombre_5-4)"/><path d="M262.71 293.4c7.87 1.05-3.12 17.49 8.85 19.09 0 0-2-7.85 1.43-11.51 0 0 3.19 6.24 7.41 5.35-3.12-5.71 1.13-15.79-7.78-18.65z" transform="translate(-86.61 -21)" fill="url(#Degradado_sin_nombre_13-2)"/><path fill="url(#Degradado_sin_nombre_10-7)" d="M179.49 265.1l65.4-37.79-22.34-12.9-56.29 43.08 13.23 7.61z"/><path d="M265.93 285l63.19-36.49a41.28 41.28 0 0 1 0-11.22l-63.7 36.64s-4 9 .19 11.38z" transform="translate(-86.61 -21)" fill="url(#Degradado_sin_nombre_12-3)"/><path d="M331.5 248.31l-64.7 37.36c-3.73-2.75 0-10.8 0-10.8l64.7-37.39v-1l-66.36 37.24s-4.78 10.14 1 13.45l65.4-37.79z" transform="translate(-86.61 -21)" fill="url(#Degradado_sin_nombre_11-3)"/><path fill="url(#Degradado_sin_nombre_10-8)" d="M87.52 200.24l91.97 53.05 65.4-37.79-91.97-53.06-65.4 37.8z"/><path d="M266.1 287.19c-4.53-3.47 0-12.9 0-12.9l-92-53.05s-4.53 9.42 0 12.9z" transform="translate(-86.61 -21)" fill="url(#Degradado_sin_nombre_10-9)"/><path d="M179.61 237.3c-4.53-3.48 0-12.9 0-12.9l-1.55-.9s-4.53 9.42 0 12.9z" transform="translate(-86.61 -21)" fill="url(#Degradado_sin_nombre_9-9)"/><path d="M182.83 239.16c-4.53-3.48 0-12.9 0-12.9l-1.56-.9s-4.53 9.42 0 12.9z" transform="translate(-86.61 -21)" fill="url(#Degradado_sin_nombre_9-10)"/><path d="M186.05 241c-4.53-3.48 0-12.9 0-12.9l-1.55-.9s-4.54 9.42 0 12.9z" transform="translate(-86.61 -21)" fill="url(#Degradado_sin_nombre_9-11)"/><path d="M189.34 242.79c-4.53-3.48 0-12.9 0-12.9l-1.56-.9s-4.53 9.43 0 12.9z" transform="translate(-86.61 -21)" fill="url(#Degradado_sin_nombre_9-12)"/><path d="M259 283.08c-4.54-3.48 0-12.9 0-12.9l-3.76-2.18s-4.53 9.42 0 12.9z" transform="translate(-86.61 -21)" fill="#fca5ff"/><path d="M239.7 270.08a.15.15 0 0 1-.09 0l-42.71-23.77c-1.85-2 .17-8.75.25-9a.19.19 0 0 1 .11-.12.2.2 0 0 1 .15 0l42.7 24.22a.16.16 0 0 1 .08.2c0 .07-1.68 6.41-.3 8.24a.18.18 0 0 1 0 .22.2.2 0 0 1-.19.01zM197.1 246l42.16 23.44c-.85-2.22.29-7 .51-7.85l-42.38-24c-.33 1.16-1.79 6.76-.29 8.41z" transform="translate(-86.61 -21)" fill="url(#Degradado_sin_nombre_9-13)"/><path d="M284.06 280.18c-4.6-2.19-2.64-7.47-7.78-8.3l-6 3.49c4.8.65.69 7.21 8 8.19l4.89-.6z" transform="translate(-86.61 -21)" fill="url(#Degradado_sin_nombre_8-3)"/><path fill="url(#Degradado_sin_nombre_2-8)" d="M177.77 242.61l54.07-31.22-24.89-14.37-43.92 37.11 14.74 8.48z"/><path d="M264.19 262.4l51.6-29.77a46 46 0 0 1 0-12.5l-52.17 29.94s-4.45 10 .22 12.67z" transform="translate(-86.61 -21)" fill="url(#Degradado_sin_nombre_7-3)"/><path d="M318.45 232.39l-53.29 30.75c-4.16-3.07 0-12 0-12l53.29-30.77v-1.09l-55.14 30.6s-5.32 11.3 1.07 15l54.07-31.22z" transform="translate(-86.61 -21)" fill="url(#Degradado_sin_nombre_6-4)"/><path fill="url(#Degradado_sin_nombre_2-9)" d="M100.8 185.05l76.97 44.41 54.07-31.22-76.97-44.41-54.07 31.22z"/><path d="M264.38 264.83c-5-3.87 0-14.37 0-14.37l-77-44.41s-5 10.5 0 14.37z" transform="translate(-86.61 -21)" fill="url(#Degradado_sin_nombre_2-10)"/><path d="M248.81 253.28c-1.76-2.82 0-8.73 0-8.73l-46.71-26.94s-1.89 5.52 0 8.72z" transform="translate(-86.61 -21)" fill="url(#Degradado_sin_nombre_5-5)"/><path d="M190.57 219.54c-1.75-2.82 0-8.72 0-8.72l8.72 5.16s-1.89 5.52 0 8.72z" transform="translate(-86.61 -21)" fill="url(#Degradado_sin_nombre_5-6)"/><path d="M251.94 255.05c-1.76-2.81 0-8.72 0-8.72l2.28 1.34s-1.9 5.52 0 8.72z" transform="translate(-86.61 -21)" fill="url(#Degradado_sin_nombre_5-7)"/><path d="M286 256.39c-4.94-6-.64-7-5.89-10.09l-8.88 5.27c5.64 1.46 1.89 8.23 8.12 8.95 0 0-.89-4.38.86-6.53-.02.01 2.97 3.01 5.79 2.4z" transform="translate(-86.61 -21)" fill="#ff4eff"/><path class="cls-64" d="M266.3 61.4a167.41 167.41 0 0 1 8.14-23l3.23.47-4.22 19.64a15.64 15.64 0 0 1-7.15 2.89z" transform="translate(-86.61 -21)"/><path class="cls-65" d="M164.64 69.11h.32l-.08 1.78-.92.08v-.93l.68-.93z"/><path class="cls-66" d="M262.13 93.51c.52 2.29-2 4.82-5.66 5.65s-7-.37-7.53-2.67 2-4.83 5.65-5.65 7.02.37 7.54 2.67z" transform="translate(-86.61 -21)"/><path class="cls-66" d="M251.44 86.52a27.16 27.16 0 0 1-.75 6.75c1.48 2.34 7.81 3.81 8.76 1.12a7.74 7.74 0 0 1 .74-4.11c1-1.7-8.75-3.76-8.75-3.76z" transform="translate(-86.61 -21)"/><path d="M251.44 86.52v1.62a9.93 9.93 0 0 0 8 5.51 7 7 0 0 1 .77-3.37c.98-1.7-8.77-3.76-8.77-3.76z" transform="translate(-86.61 -21)" fill="#cc8a6d"/><path d="M277 67.78c-.13 3.42-8.54 16.63-9.44 35-1.79 5.32-12-16.66-9.87-25.83 1.9-8.34 3.86-16.56 6.66-23 2.5-5.64 12.44-3.29 12.65 13.83z" transform="translate(-86.61 -21)" fill="url(#Degradado_sin_nombre_92)"/><path class="cls-69" d="M238.9 215.63v2c0 .93 2.05 2.33 3.66 2.77a.16.16 0 0 0 .19-.16v-.48a10 10 0 0 1 2.08 1.09c.08.05.17.49.26.55 1.18.86 2.39 1.58 3.4 2.25 1.47 1 4.24-.17 5-.5a.3.3 0 0 0 .17-.28v-.35l-2.95.13-5.1-2.82-6-3.39-.07-.58-.61-.27" transform="translate(-86.61 -21)"/><path class="cls-65" d="M239.46 214.18c-.05.47 1.69 1.44 3.31 1.46s3.73.64 3-.55a58.84 58.84 0 0 0 7.82 6.39c.14.1.11.82.11 1a.26.26 0 0 1-.16.24c-.68.27-3.31 1.24-4.79.25-1.7-1.13-4.4-3.2-6-3.56s-3.85-1.86-3.86-2.82 0-.91 0-1.41a1.06 1.06 0 0 1 .57-1z" transform="translate(-86.61 -21)"/><path d="M240 139.81c-6.33 5.17 0 28 3.19 40.05-.15.41-1 2.19-1 2.19-.24 3.09-1.23 6.44-1.4 10.89-.3 7.53-1.46 21.52-1.46 21.52.43 2 7.41 3 7.23.11l5.12-36.19a222.8 222.8 0 0 0-1.2-39.39 8.63 8.63 0 0 0-10.48.82z" transform="translate(-86.61 -21)" fill="url(#Degradado_sin_nombre_91)"/><path class="cls-69" d="M262.92 203.68l.27 2c.12.91 2.3 2.09 3.95 2.34a.16.16 0 0 0 .17-.18l-.08-.48a10.67 10.67 0 0 1 2.19.85c.09.05.23.47.32.53 1.27.71 2.56 1.29 3.63 1.84 1.58.81 4.2-.65 4.88-1.06a.29.29 0 0 0 .14-.29v-.35l-2.92.46-5.47-2.2-6.34-2.69-.14-.57-.64-.2" transform="translate(-86.61 -21)"/><path class="cls-65" d="M263.32 202.18c0 .47 1.84 1.23 3.45 1.07s3.78.22 3-.89a49.07 49.07 0 0 0 8.43 5.59c.15.08.26.68.28.85a.24.24 0 0 1-.13.26c-.64.35-3.15 1.61-4.73.8-1.82-.94-4.74-2.69-6.39-2.86s-4-1.41-4.15-2.37-.12-.9-.19-1.4a1 1 0 0 1 .43-1.05z" transform="translate(-86.61 -21)"/><path d="M253.46 127c-5.7 5.86 5.12 29 9.66 40.63-.1.42-.74 2.28-.74 2.28.11 3.1-.49 6.54-.16 11 .56 7.52 1 21.55 1 21.55.65 2 7.7 2.11 7.2-.71l1-36.54a223.61 223.61 0 0 0-5.65-39s-7.39-4.21-12.31.79z" transform="translate(-86.61 -21)" fill="url(#Degradado_sin_nombre_91-2)"/><path d="M266.65 131.11c-.86-.07-3 2-7.6 3.49a6.82 6.82 0 0 0-3.3 2.43c-1.82-.77-7.76-2.79-11.68 1.63-1.35 1.52-1.62 4.06-1.2 7.2 2.39 1.4 6.77 1.22 10.7.82s9.92-1.92 12.72-4c.4-4 .5-7 .74-9.06-.12-.79-.25-1.62-.38-2.51z" transform="translate(-86.61 -21)" style="mix-blend-mode:multiply" fill="#137391" opacity=".35"/><path d="M259.35 97.54s-3.07 1.2-4.08 3.48 5.91 4 5.91 4 2-4.85 2.05-6.68-3.88-.8-3.88-.8z" transform="translate(-86.61 -21)" fill="url(#Degradado_sin_nombre_90)"/><path d="M251.16 90.82a3.46 3.46 0 0 0 .16 1.65c.77 2 3.39 4.65 8 5.07a9.53 9.53 0 0 0-3.16 3.23c-3.28-.88-7.3-6.93-5-9.95z" transform="translate(-86.61 -21)" fill="url(#Degradado_sin_nombre_89)"/><path d="M259.35 97.54a5.45 5.45 0 0 1 3.1 1.42s-.64-6.19-3.1-7.52c.26.35 1.71 2.4 0 6.1z" transform="translate(-86.61 -21)" fill="url(#Degradado_sin_nombre_79)"/><path d="M269 98.57c0-4.14-2.08-8.09-5-9.9l-1.67-.41-5.94.54s8.63 4.8 4.74 15c0 0-12.7-6-9.83-13.7a40.81 40.81 0 0 0-4.88 1.9 7.51 7.51 0 0 0-2.09-2.12c-2.24-2.55-15.17-14.68-19.33-17.34-4.72-3-9.62 17.59-1.48 22.3 7.6 4.38 12.43 8.15 15.15 13.72-2.74 25.54-3.9 80.46-1.45 91 5.75 5.86 8.16 5.12 14 2.64s7.17 0 13.52-2.63 9.4-9.77 9.4-9.77S269 105.58 269 98.57z" transform="translate(-86.61 -21)" fill="url(#Degradado_sin_nombre_84)"/><path d="M226.64 82.88c-.28 5-1.71 8.93-3.2 8.85s-2.46-4.19-2.18-9.16 1.72-8.94 3.2-8.85 2.47 4.18 2.18 9.16z" transform="translate(-86.61 -21)" fill="url(#Degradado_sin_nombre_88)"/><path class="cls-64" d="M225.47 82.72c-11-7.59-15.67-12.45-15.67-12.45l3.34-4.22 11.93 9a15.56 15.56 0 0 1 .4 7.67z" transform="translate(-86.61 -21)"/><path d="M266.85 198.45c-4.16-25.38-3.7-58.66-3.43-78.62.11-7.7-.13-17.69-1.33-21.16a14.54 14.54 0 0 1-1 5.15 26.42 26.42 0 0 1-2.45-1.37c.24 2.33.41 10 .31 17.32-.28 20.27-.68 54.67 3.65 80.52a20.24 20.24 0 0 0 2.17-.75 14.24 14.24 0 0 0 2.08-1.09z" transform="translate(-86.61 -21)" fill="url(#Degradado_sin_nombre_87)"/><path d="M265.16 199.35c-4.27-25.6-3.9-60.1-3.67-80.65.08-7.72.14-13.46-.09-15.81-.1.3-.2.61-.32.93 0 0-.2-.09-.52-.26.17 2.57.11 8 0 15.13-.22 20.64-.6 55.32 3.71 81l.46-.17z" transform="translate(-86.61 -21)" fill="url(#Degradado_sin_nombre_86)"/><path class="cls-64" d="M208.89 62.93c.43-2.58-1.74-3-2.3-5.16s-2.36-1-2 .32 3.55 5 3.55 5z" transform="translate(-86.61 -21)"/><path transform="rotate(-51.53 143.898 145.272)" fill="url(#Degradado_sin_nombre_81)" d="M198.55 58.52h20.79v15.07h-20.79z"/><path class="cls-64" d="M206.23 64.38a2.19 2.19 0 0 1-1.89.71 13.44 13.44 0 0 1-3.15-1.2c-1.07-.7-2.11-1.16-1.15-3.2s3.77-4.09 5-2.39a13.26 13.26 0 0 1 2.21 3.62 3.32 3.32 0 0 1-1.02 2.46zM274.39 37.93a10 10 0 0 0-.57-3.06c-.47-1.36.09-1.88.76-2.9s1.38-.61 1.38-.61.37-1 1.26-.88 3.68.84 4.1 1.82-.33 4.32-1.4 5-2.23 1.3-2.36 1.75-3 .16-3 .16z" transform="translate(-86.61 -21)"/><path d="M253.59 124.14c-1.72-4.49-.57-31.29-4-33.58a7.08 7.08 0 0 0-3.34 1.3c2.74 2.92 1.69 29.36 3.41 33.85l3.36 1.78z" transform="translate(-86.61 -21)" fill="url(#Degradado_sin_nombre_85)"/><path d="M268.39 116.52c-1.77-4.25-.78-28.08-7.31-30.62-1.75.18-2.2.78-2.2.78 5.12 2.59 4.06 27.2 5.83 31.45l3.27 1.62z" transform="translate(-86.61 -21)" fill="url(#Degradado_sin_nombre_85-2)"/><path class="cls-64" d="M261.9 73.92a16.4 16.4 0 0 1 2 7.14c-.14.49.7 1.44.5 3.5-.15 1.5-.46 4.54-.61 6.09a1.29 1.29 0 0 1-1.05 1.15c-3 .53-7.82.84-11.33-3.94a10.59 10.59 0 0 0-2.48-2.23c-.78-.24-3.86-4.17-3.86-7.34 0-3.37 1.86-8.47 8.77-8.47a9.61 9.61 0 0 1 8.06 4.1z" transform="translate(-86.61 -21)"/><path d="M263.86 81.06a16.4 16.4 0 0 0-2-7.14 7.91 7.91 0 0 0-1.18-1.39c.17.23.26.37.26.37a16.33 16.33 0 0 1 2 7.13c-.15.49.7 1.44.49 3.5-.15 1.5-.45 4.54-.61 6.1a1.27 1.27 0 0 1-1.05 1.14c-2.66.47-6.73.76-10.06-2.49 3.48 4.32 8.08 4 11 3.52a1.29 1.29 0 0 0 1.05-1.15c.15-1.55.46-4.59.61-6.09.19-2.06-.65-3.01-.51-3.5z" transform="translate(-86.61 -21)" fill="#e0a380"/><path class="cls-84" d="M252.4 76.43c1.89 1.37-.76 6.93-.4 8.36-.54.23-.9-1.6-1.79-1.55s-.15 1.19-.15 1.19l1.43 3-.17 2c-.29-3.37-7-3.62-6.52-12 .14-2 1.38-5.33 2-4.76s5.08 1.81 5.6 3.76z" transform="translate(-86.61 -21)"/><path d="M249.63 85.48c-.74-.67-3.5-4.31-4.78-6 .67 6.34 6.2 6.83 6.47 9.89l.17-2-1.22-2.53z" transform="translate(-86.61 -21)" fill="#51443f"/><path d="M250.21 83.24c-1.32-1.38-3-.2-1.92 1.44.24.35.75.56.93.88a4 4 0 0 0 .3.48c.3.26.62.56.91.86a.8.8 0 0 0 .89-.31z" transform="translate(-86.61 -21)" style="mix-blend-mode:multiply" fill="#d39779" opacity=".4"/><path class="cls-64" d="M251.23 83.31c-.83-1.72-2.79-1.11-2.27.78.12.41.54.76.61 1.13.37 1.83 1 2 1.68 1.63" transform="translate(-86.61 -21)"/><path class="cls-84" d="M251 77c4.83 1.58 11.45-.92 11.87-1.13 1.27-.34.74-3-.89-3.72s-4.8-2.8-8.58-2.84c-3.61 0-6.92 1.18-8 5.32 1.33.68 5.6 2.37 5.6 2.37z" transform="translate(-86.61 -21)"/><path d="M288.21 43.81c2.7 3.2 6.53 4.39 8.58 2.67l8.09-6.61-9.82-11.51-8 6.55c-2.06 1.72-1.54 5.71 1.15 8.9z" transform="translate(-86.61 -21)" fill="url(#Degradado_sin_nombre_84-2)"/><path class="cls-65" d="M303.63 31c-2.69-3.2-6.53-4.39-8.57-2.67s-1.52 5.71 1.18 8.9 6.53 4.39 8.57 2.67 1.51-5.68-1.18-8.9z" transform="translate(-86.61 -21)"/><path fill="url(#Degradado_sin_nombre_84-3)" d="M203.93 0l17.41 6.61 2.98 18.37-17.41-6.6L203.93 0z"/><path d="M301.87 34a1.13 1.13 0 1 1 .16-1.6 1.13 1.13 0 0 1-.16 1.6z" transform="translate(-86.61 -21)" fill="url(#Degradado_sin_nombre_80)"/><path d="M304.49 49a.42.42 0 0 1-.28-.1c-3.47-2.89-3.06-7.42-2.75-10.73.19-2 .35-3.8-.42-4.36a.44.44 0 1 1 .52-.72c1.18.86 1 2.76.78 5.16-.3 3.29-.68 7.38 2.43 10a.45.45 0 0 1 .06.63.46.46 0 0 1-.34.12z" transform="translate(-86.61 -21)" fill="url(#Degradado_sin_nombre_81-2)"/><path d="M305.12 50.69l-1.58-1.94a.78.78 0 0 1 .11-1.11.8.8 0 0 1 1.11.11l1.58 2a.77.77 0 0 1-.11 1.1.78.78 0 0 1-1.11-.16z" transform="translate(-86.61 -21)" fill="url(#Degradado_sin_nombre_83)"/><path d="M318 146.37c-10.26-4.94-16.81 4.37-16.81 4.37S318.8 159.16 319 166s3.28-12.73 3.28-12.73z" transform="translate(-86.61 -21)" fill="url(#Degradado_sin_nombre_4)"/><path d="M308.14 183.55s15-18.12 9.84-37.18c0 0 16.2 11.07 14.76 26.65z" transform="translate(-86.61 -21)" fill="url(#Degradado_sin_nombre_3)"/><path d="M288.07 96s11.51-2.59 18.51 2.34l-.21 11.85s-10.62-4-18-1z" transform="translate(-86.61 -21)" fill="url(#Degradado_sin_nombre_2-11)"/><path d="M197.59 180.77s-4.53-12.27 5-20.64l-14-1.49c-9.54 8.37-5 20.65-5 20.65z" transform="translate(-86.61 -21)" fill="url(#Degradado_sin_nombre_2-12)"/><path d="M191.6 124.4s-4-16.26-5.92-22.05l26-1.24c-.47 1.69.54 11.94 2 14.8L193.42 125z" transform="translate(-86.61 -21)" fill="url(#Degradado_sin_nombre_2-13)"/><path d="M194.16 128.45s-2 0-3.28-3.25c0 0 14.93-16.53 15.37-18.28l7.39 9z" transform="translate(-86.61 -21)" fill="url(#Degradado_sin_nombre_3-2)"/><path d="M222 150.27a81.61 81.61 0 0 0-3.76-15.71s7.71-3.85 10.19-8.26c0 0 9.83 5 13.23 21.12z" transform="translate(-86.61 -21)" fill="url(#Degradado_sin_nombre_2-14)"/><path d="M204.08 134.44l.13.61-2.94.6-.12-.62a1.49 1.49 0 0 1 1.17-1.76 1.49 1.49 0 0 1 1.76 1.17z" transform="translate(-86.61 -21)" fill="url(#Degradado_sin_nombre_79-2)"/><path transform="rotate(-101.52 153.717 174.267)" fill="url(#Degradado_sin_nombre_81-3)" d="M192.47 147.9h26.27v2.99h-26.27z"/><path fill="url(#Degradado_sin_nombre_79-3)" d="M123.95 145.22l.02 6.54-.42.09-2.53-6.03 2.93-.6z"/><path transform="rotate(-101.52 151.04 161.109)" fill="url(#Degradado_sin_nombre_80-2)" d="M201.86 134.44h2.12v3.6h-2.12z"/><path transform="rotate(-101.52 151.298 162.364)" fill="url(#Degradado_sin_nombre_79-4)" d="M202.96 136h.44v2.99h-.44z"/><path d="M209.68 161l1.07 5.24a.1.1 0 0 1-.08.13l-3.08.63a.11.11 0 0 1-.13-.08l-1.07-5.25a.1.1 0 0 1 .08-.13l3.09-.63a.11.11 0 0 1 .12.09z" transform="translate(-86.61 -21)" fill="url(#Degradado_sin_nombre_80-3)"/><path d="M201.14 136l-.52.1a.34.34 0 0 0-.26.39l1.89 9.26a.09.09 0 0 0 .11.07.38.38 0 0 0 .3-.45l-1.66-8.44.32-.07z" transform="translate(-86.61 -21)" fill="url(#Degradado_sin_nombre_80-4)"/><path d="M340.22 143.64l-.6-.32 1.51-2.88.6.31a1.63 1.63 0 0 1 .69 2.2 1.64 1.64 0 0 1-2.2.69z" transform="translate(-86.61 -21)" fill="url(#Degradado_sin_nombre_79-5)"/><path transform="rotate(27.61 325.985 -52.092)" fill="url(#Degradado_sin_nombre_81-4)" d="M312.3 133.03h28.55v3.25H312.3z"/><path fill="url(#Degradado_sin_nombre_79-6)" d="M222.37 106.3l-5.52-4.47.21-.41 6.82 2-1.51 2.88z"/><path transform="rotate(27.61 338.912 -45.322)" fill="url(#Degradado_sin_nombre_80-5)" d="M338.34 139.46h2.31v3.91h-2.31z"/><path transform="rotate(27.61 337.7 -45.952)" fill="url(#Degradado_sin_nombre_79-7)" d="M338.02 139.15h.48v3.25h-.48z"/><path d="M314 130.15l-5.16-2.7a.13.13 0 0 1-.05-.16l1.59-3a.12.12 0 0 1 .16-.05l5.16 2.69a.12.12 0 0 1 .05.16l-1.59 3a.13.13 0 0 1-.16.06z" transform="translate(-86.61 -21)" fill="url(#Degradado_sin_nombre_80-6)"/><path d="M340.94 140.1l.27-.51a.37.37 0 0 0-.15-.49l-9.1-4.75a.1.1 0 0 0-.14 0v.05a.41.41 0 0 0 .17.56l8.27 4.33-.17.32z" transform="translate(-86.61 -21)" fill="url(#Degradado_sin_nombre_80-7)"/></g></g></svg>
