<svg xmlns="http://www.w3.org/2000/svg" width="512" height="145" preserveAspectRatio="xMinYMin meet"><g fill="#83CD29"><path d="M471 52h-3l-34 20c-3 1-4 4-4 6v39c0 3 1 5 4 6l8 6 8 2c7 0 10-4 10-11V82l-1-1h-4l-1 1v38c0 3-3 6-8 4l-9-6-1-1V78l1-1 34-19a1 1 0 0 1 1 0l33 19 1 1v39l-1 1-33 20h-1l-9-5a1 1 0 0 0-1 0l-5 2c-1 0-2 0 0 1l12 7a7 7 0 0 0 3 1 7 7 0 0 0 4-1l33-20c3-1 4-3 4-6V78c0-2-1-5-4-6l-33-20h-4z"/><path d="M480 80c-10 0-15 4-15 10 0 8 5 10 15 11 11 1 12 3 12 5 0 4-3 5-11 5s-10-2-11-7h-5l-1 1c0 5 3 12 17 12 11 0 17-4 17-12 0-7-5-9-15-10-11-2-12-2-12-5 0-2 1-5 9-5 7 0 10 2 11 7h6v-1c-1-8-6-11-17-11z"/></g><path fill="#404137" d="M272 0a2 2 0 0 0-1 1 2 2 0 0 0-1 2v55l-1 1a2 2 0 0 1-2 0l-9-5a4 4 0 0 0-4 0l-36 20-2 4v42l2 3 36 21a4 4 0 0 0 4 0l36-21a4 4 0 0 0 3-3V16a4 4 0 0 0-3-3L273 1l-1-1zM41 52l-2 1L3 73a4 4 0 0 0-2 4v56l1 2a2 2 0 0 0 2 0l21-13c2 0 3-2 3-3V93l2-4 9-5a4 4 0 0 1 2-1l2 1 9 5a4 4 0 0 1 2 4v26c0 1 1 3 3 3l21 13a2 2 0 0 0 2 0 2 2 0 0 0 1-2V77a4 4 0 0 0-2-4L43 53l-2-1zm322 1h-2l-36 21a4 4 0 0 0-2 4v41l2 4 36 20h4l22-12 1-2a2 2 0 0 0-1-2l-36-20-1-2V92l1-2 11-7a2 2 0 0 1 2 0l12 7a2 2 0 0 1 1 2v10a2 2 0 0 0 1 2h2l21-13a4 4 0 0 0 2-3V78c0-2 0-3-2-4l-35-21a4 4 0 0 0-3 0zM256 84h1l12 7 1 1v14l-1 1-12 7a1 1 0 0 1-1 0l-13-7V92v-1l13-7z"/><path fill="#83CD29" d="M149 52l-2 1-36 21c-2 0-3 2-3 3v42l3 4 36 20a4 4 0 0 0 4 0l36-20a4 4 0 0 0 2-4V77l-2-3-36-21a4 4 0 0 0-2-1zm214 37l-7 4a1 1 0 0 0 0 1v8a1 1 0 0 0 0 1l7 4h1l7-4a1 1 0 0 0 0-1v-8a1 1 0 0 0 0-1l-7-4h-1z"/></svg>
