<svg xmlns="http://www.w3.org/2000/svg" viewBox="0 0 299.26 276.46"><defs><style>.cls-3{fill:#ebe8ec}.cls-4{fill:#ecd0a1}.cls-5{fill:#1e2322}.cls-7{fill:#fed976}.cls-8{fill:#fff}.cls-10{fill:#333049}.cls-11{fill:#3f2a3f}.cls-14{fill:#a0bcea}</style></defs><g id="Layer_2" data-name="Layer 2"><g id="OBJECTS"><ellipse cx="153.17" cy="266.63" rx="146.09" ry="9.83" fill="#1e2226" opacity=".67"/><path class="cls-3" d="M210.73 264.86a208.77 208.77 0 0 0 31.05 2.56 190.64 190.64 0 0 0 29.3-2.56l-1.17-2.59c-5.14-11.41-24.59-7-29-18.75-3.68 11.78-23.86 7.34-29 18.75z"/><path class="cls-3" transform="rotate(180 241.27 214.215)" d="M237.22 176.32h8.09v75.8h-8.09z"/><path class="cls-4" d="M239.53 245.9l-3.53-7.72-7.75 2.85 2.15 7.94 9.13-3.07z"/><path class="cls-5" d="M239.51 245.78l1.86 6.32-8.18 2.58s-18.47 7.76-21.92 4.16c-1.57-1.65 4.44-3.27 8.3-5.83s9.92-6.16 9.92-6.16a38.8 38.8 0 0 0 10.02-1.07z"/><path class="cls-4" d="M198.64 257.32l-1.21-8.41-8.23.55-.18 8.23 9.62-.37z"/><path class="cls-5" d="M198.66 257.2v6.58l-8.58.17s-19.92 2.22-22.2-2.2c-1-2 5.18-1.89 9.6-3.25s11.26-3.11 11.26-3.11a38.77 38.77 0 0 0 9.92 1.81z"/><path d="M124.23 112.38l11.37-3.77 10.07 2.55c5.66-1.47 7.55-1.39 19.15-4.37a157.89 157.89 0 0 0 21.05-7.55l8.34-14c5.4.49 16.74 6.38 16.74 6.38S195.44 112.73 191 114.2s-34.18 5.11-45.53 3.8c-3.57-.41-10.57-4.19-10.57-4.19l-9 1.49-6.9 4.7-1.23-1 2.79-3.05z" fill="#ddbb8a"/><path class="cls-7" d="M202.81 58.63s14.46 2.42 14.19 15.42c-.16 8.47-11.78 24.29-11.78 24.29s-6.34-8.83-14.22-11.29c0 0 5.09-15 6.65-19.63a22.09 22.09 0 0 1 5.16-8.79z"/><path class="cls-3" transform="rotate(180 241.27 181.835)" d="M226.92 174.11h28.7v15.45h-28.7z"/><path class="cls-3" d="M230.77 114q-2.13-28-3.05-56.15c17.74-7.9 57.32-4.37 61 7.35 3.92 12.43-11 47.83-11 61.08s5.15 22.81 5.89 28.7a14.66 14.66 0 0 1-2.95 10.3h-45.38c-1.16-17.11-3.22-34.2-4.51-51.28z"/><path class="cls-8" d="M230.77 114q-2.22-29.22-3.12-58.52c19.5-4.56 50.48-.59 53.73 9.72 3.93 12.43-11 47.83-11 61.08s5.15 22.81 5.89 28.7a14.66 14.66 0 0 1-3 10.3h-38c-1.15-17.11-3.21-34.2-4.5-51.28z"/><path class="cls-8" d="M203.24 165.28h77.41v14h-85.37v-6a8 8 0 0 1 7.96-8z" transform="rotate(180 237.96 172.27)"/><path d="M211.47 133.14s-40.84 24.27-43.27 34.29c-2.9 11.95 16.69 82.74 16.69 82.74 4.62 3.11 13.18 2.06 16.33-.77 0 0-15.75-60.57-14-64.62 4.2-9.9 40-21.71 51.27-32.5s12.27-21.1 12.27-21.1z" fill="#28243f"/><path class="cls-10" d="M258.15 122.29s13.91 29 1.4 40.78c-5.72 5.39-40 .49-42 5.89l20.69 68.72s-3.65 2.22-11 5.9c0 0-43-75.85-38.63-85.66s34.1-15.45 35.57-20.85a120.61 120.61 0 0 0 2.46-14.23z"/><path class="cls-4" d="M199.15 43.62c.88 3.37 2.46 7.08 5.77 8.18 3 1 6.27-.62 9-2.26 3.23-1.93 6.51-4 8.58-7.18 3.14-4.78 5.68-10.61 5.33-16.32-.12-2-3.07-4.49-4.3-6.09a8.9 8.9 0 0 0-3.44-2.47 35.75 35.75 0 0 0-9.67-3c-5.58-.91-11.79.33-12.9 6.46-1.31 7.28-.25 15.59 1.63 22.68z"/><path class="cls-11" d="M207.31 30.63a1.53 1.53 0 1 0 1.52-1.53 1.52 1.52 0 0 0-1.52 1.53zM198.64 30.63a1.53 1.53 0 1 0 1.53-1.53 1.52 1.52 0 0 0-1.53 1.53z"/><path class="cls-11" d="M210.19 36.18a5.32 5.32 0 1 1 5.33-5.32 5.33 5.33 0 0 1-5.33 5.32zm0-9.65a4.33 4.33 0 1 0 4.34 4.33 4.34 4.34 0 0 0-4.34-4.33z"/><path class="cls-11" d="M202.18 28l-.79-.59a3.62 3.62 0 0 1 2.73-1.41 4.17 4.17 0 0 1 3.22 1.29l-.71.68a3.19 3.19 0 0 0-2.46-1 2.66 2.66 0 0 0-1.99 1.03z"/><path class="cls-11" d="M198.45 36.18a5.32 5.32 0 1 1 5.33-5.32 5.33 5.33 0 0 1-5.33 5.32zm0-9.65a4.33 4.33 0 1 0 4.34 4.33 4.34 4.34 0 0 0-4.34-4.33z"/><path class="cls-4" d="M238.51 52.81s-.06-1.11-4-2.09c-1.13-.28-2.54-.28-3.43-1.06a27.6 27.6 0 0 1-7.18-11.76 3.31 3.31 0 0 1-.17-1.73c-2.65 2.25-5.22 4.6-7.68 7-.85.84-6 .37-5.34 1.51.17.31 1.48 3.29 2.76 6.17-2.48 1.63-5.21 3.75-5.21 3.75l-3.44 19.13 10.06 5.64s11.29-2.45 18.64-6.37 4.99-20.19 4.99-20.19z"/><path d="M234.53 50.72a22.25 22.25 0 0 1-10.31 8.59c-7.36 3.19-14-6.38-14-6.38l-7.43 5.7s-.66 26.08 2.52 40.31 6.14 34.2 6.14 34.2 3.29 4.83 7.49 5.11c5.14.35 12.23-3.68 23.42-1.67a61.89 61.89 0 0 0 21.65.27s-9.55-46.67-11.75-56-7.94-28.42-7.94-28.42a78.6 78.6 0 0 0-9.79-1.71z" fill="#f2b10f"/><path class="cls-3" d="M101.56 116.5h42.93a3 3 0 0 1 3 3v.7h-45.93v-3.7z" transform="rotate(180 124.53 118.355)"/><path class="cls-8" d="M118.15 74.29a3 3 0 0 1 2.86 2l14.59 40.26-.91.38.24.7-33.37-1.13-14.2-38.13a3 3 0 0 1 2.84-4.09z"/><path class="cls-3" d="M106.74 98.13c1 3.8 2.93 6.82 4.33 6.76s1.74-3.19.75-7-2.93-6.83-4.33-6.77-1.74 3.21-.75 7.01z"/><path class="cls-11" d="M204.15 27.33c.06 2.94-1.13 5.15-2.36 7.72a5.43 5.43 0 0 0-.55 3.92.44.44 0 0 0 .42.32 10.59 10.59 0 0 0 3.49-1.29c.42-.2.12-.93-.32-.77s-1 .44-1.49.57c-1.06.29-1.24.47-1.28-.66-.05-1.38 1.19-2.89 1.7-4.15a11.86 11.86 0 0 0 .88-5.67c0-.31-.5-.32-.49 0zM208.1 24.62a8.32 8.32 0 0 0 1.86.24c.66.06 1.32.15 2 .22.85.1 1.06-1.36.21-1.5a11.26 11.26 0 0 0-4-.2.65.65 0 0 0 0 1.24zM198.31 24.64c1 .17 2.1 0 3.16.06s.95-1.42 0-1.52a4.63 4.63 0 0 0-3.27.6c-.28.21-.34.79.11.86zM215 29.88a15.9 15.9 0 0 0 3-.83 13.32 13.32 0 0 0 3-1.05.35.35 0 0 0-.18-.65 10.42 10.42 0 0 0-3 .76 12.61 12.61 0 0 0-2.92 1.19c-.24.16-.18.64.16.6z"/><path class="cls-10" d="M207.4 22.2c-4.78-.32-9.8-.34-14-2.52-2-1.05-3.85-2.74-4.24-4.87a4.08 4.08 0 0 1 3.49-4.74 3.09 3.09 0 0 0 1.4-.23c.51-.31.59-1 .67-1.53.52-3.78 3.7-7.6 7.82-7.5 3.35.07 6.47 2.65 9.72 1.87a14.13 14.13 0 0 0 2.79-1.22 14.9 14.9 0 0 1 9-1.23c3.22.57 6.64 3.11 5.85 6.06-.27 1-1 1.84-1.16 2.84-.67 3.57 5 5.35 6.14 8.82 1 3.16-2.1 6.3-1.86 9.59.13 1.83 1.2 4-.19 5.27-.75.7-2 .87-2.51 1.73-.68 1.18.58 2.51.69 3.84.14 1.64-1.74 3-3.51 2.88a5 5 0 0 1-4-3 10.79 10.79 0 0 1-.7-4.88c3-.84 4.86-5.79 2-7-1.51-.68-3.11 1-3.68 2.35-2.82-4.73-7.59-6.53-13.72-6.53z"/><path class="cls-10" d="M219.59 29.82c-1 2.28-2 4.56-3 6.85a6.58 6.58 0 0 1-1.59 2.51 5.17 5.17 0 0 1-4.35.75c-1.49-.31-4.34-1.13-5.86-1-3.47.3-6 2-6.24 2.38-.45.85.17 2.17.19 3.13a5.58 5.58 0 0 1-.66 2.9 9.55 9.55 0 0 1-1.3 1.54c-1.23 1.31-2.34 2.95-2.24 4.74.13 2.46 2.4 4.17 4.45 5.54a11.64 11.64 0 0 0 4.22 2 11.86 11.86 0 0 0 3.15 0 31.68 31.68 0 0 0 6.51-1 10.61 10.61 0 0 0 5.44-3.54 15.6 15.6 0 0 0 2.21-5.16 36.32 36.32 0 0 0 1.79-8.91 63.86 63.86 0 0 0-.73-8.5 45.23 45.23 0 0 1-.16-7.45c0-.3.05-1-.4-1.1s-.32.68-.39 1a17.85 17.85 0 0 1-1.04 3.32z"/><path class="cls-4" d="M201.29 42.84a2.81 2.81 0 0 0 .58 3.11 1.74 1.74 0 0 0 1.36.55 1 1 0 0 0 .93-1c0-.19-.09-.39 0-.55a.61.61 0 0 1 .49-.19c.68 0 1.5 0 1.82.61.1.18.13.39.24.57a1.39 1.39 0 0 0 1.33.42 7.32 7.32 0 0 0 2.06-.46 2.25 2.25 0 0 0 .92-.54 1 1 0 0 0 .26-1 1.42 1.42 0 0 0-.6-.64c-2.11-1.51-7.68-4.57-9.39-.88z"/><path class="cls-11" d="M202.34 42.82a4.81 4.81 0 0 0 4.53-.07.35.35 0 0 0-.18-.65c-.7 0-1.38.28-2.1.32s-1.41-.11-2.12-.08a.26.26 0 0 0-.13.48z"/><path class="cls-8" d="M232.3 169.47s-1.42-39.6 7.42-42.21 28.28-1.87 28.28-1.87l1.77 7.1s-25.46-1.87-29 3 0 34.37 0 34.37z"/><path class="cls-4" d="M161.08 111.15l11.37-3.77 10.07 2.55c5.66-1.48 7.55-1.39 19.15-4.38A158.55 158.55 0 0 0 222.72 98l12.77-19.08c5.4.49 12.31 11.47 12.31 11.47S232.29 111.5 227.88 113s-38.1 5.38-49.45 4.08c-3.57-.41-9.89-4.32-9.89-4.32l-5.74 1.34-7 4.72-1.22-1 2.78-3z"/><path class="cls-7" d="M244.34 52.44s15.21 2.45 15 15.45c-.16 8.47-11.77 24.29-11.77 24.29s-6.38-8.83-14.23-11.28c0 0 6.13-12 6.62-16.93s4.38-11.53 4.38-11.53z"/><path class="cls-8" d="M135.6 116.5h42.93a3 3 0 0 1 3 3v.7H135.6v-3.7z" transform="rotate(180 158.565 118.355)"/><path class="cls-3" transform="rotate(180 169.59 118.255)" d="M161.93 117.68h15.31v1.15h-15.31z"/><path class="cls-3" transform="rotate(180 158.505 118.255)" d="M157.37 117.68h2.27v1.15h-2.27z"/><path class="cls-8" d="M65.44 104.65l-2.06-15.2.74-2.76 1.66 2.32 1.91 15.49-2.25.15zM75.44 105.65l2.16-15.18 1.47-2.46.96 2.68-2.38 15.43-2.21-.47zM68.48 106.83l.18-15.56 1.33-2.46 1.14 2.5-.21 15.54-2.44-.02z"/><path class="cls-7" d="M77.72 121.84H65.95l-2.13-19.5h15.45l-1.55 19.5z"/><path class="cls-8" d="M229.69 269.42h2.82l-31.76-138.18h-5.98l34.92 138.18zM143.63 267.97h2.82l20.43-136.73h-5.98l-17.27 136.73zM100.83 268.81h2.82L81.2 131.24h-5.98l25.61 137.57zM21.7 267.35h2.82l27.03-136.11h-5.98L21.7 267.35z"/><path transform="rotate(180 143.16 128.15)" fill="#8cacdd" d="M68.67 125.06h148.99v6.18H68.67z"/><path class="cls-14" transform="rotate(180 89.585 128.15)" d="M20.89 125.06h137.39v6.18H20.89z"/><path class="cls-14" transform="rotate(180 151.65 124.025)" d="M71.98 119.89h159.34v8.27H71.98z"/><path transform="rotate(180 73.875 124.025)" fill="#d2e1f7" d="M0 119.89h147.75v8.27H0z"/></g></g></svg>
