<svg xmlns="http://www.w3.org/2000/svg" width="48" height="48" fill="none" viewBox="0 0 48 48"><g clip-path="url(#a)"><g clip-path="url(#b)"><path fill="#1868db" d="M41.318 36.567 25.44 4.813c-.312-.688-.625-.813-1-.813-.312 0-.688.125-1.063.75-2.25 3.563-3.25 7.689-3.25 12.002 0 6 3.063 11.627 7.564 20.69.5 1 .875 1.188 1.75 1.188h11.001c.813 0 1.25-.312 1.25-.938 0-.312-.062-.5-.374-1.125M18.252 21.565c-1.25-1.875-1.626-2-1.938-2s-.5.125-1.063 1.25L7.313 36.692c-.25.5-.313.688-.313.938 0 .5.438 1 1.375 1h11.19c.75 0 1.312-.625 1.624-1.813.376-1.5.5-2.813.5-4.375 0-4.376-1.937-8.627-3.437-10.877"/></g></g><defs><clipPath id="a"><path fill="#fff" d="M0 0h48v48H0z"/></clipPath><clipPath id="b"><path fill="#fff" d="M7 4h34.693v34.63H7z"/></clipPath></defs></svg>